<?xml version="1.0" standalone="no"?>
<!DOCTYPE svg PUBLIC "-//W3C//DTD SVG 20010904//EN"
 "http://www.w3.org/TR/2001/REC-SVG-20010904/DTD/svg10.dtd">
<svg version="1.0" xmlns="http://www.w3.org/2000/svg"
 width="474.000000pt" height="474.000000pt" viewBox="0 0 474.000000 474.000000"
 preserveAspectRatio="xMidYMid meet">

<g transform="translate(0.000000,474.000000) scale(0.100000,-0.100000)"
fill="#333333" stroke="none">
<path d="M0 2370 l0 -2370 1400 0 c1393 0 1400 0 1400 20 0 22 16 26 40 10 12
-8 12 -10 1 -10 -8 0 -11 -3 -8 -7 4 -3 18 6 31 20 14 15 32 27 40 27 10 0 15
8 13 22 -1 15 4 23 17 26 13 3 16 0 11 -10 -6 -10 -5 -10 4 -2 18 17 9 48 -14
52 -11 2 -30 8 -42 14 -27 14 -87 -7 -64 -22 23 -14 3 -32 -21 -19 -18 10 -24
8 -38 -11 l-17 -23 -23 21 c-13 12 -40 24 -59 28 -67 10 -136 28 -148 37 -7 5
-17 6 -23 2 -6 -4 -20 5 -31 19 -13 16 -26 23 -36 19 -9 -3 -21 0 -27 8 -6 9
-19 18 -29 22 -10 4 -24 21 -32 39 -7 18 -44 64 -80 102 -39 40 -62 71 -56 75
6 4 7 18 2 36 -8 30 -8 30 -15 -12 -8 -44 -36 -62 -36 -23 0 11 5 20 10 20 19
0 10 17 -15 28 -34 16 -60 15 -74 -1 -8 -10 -4 -19 19 -36 17 -12 30 -26 30
-32 0 -5 9 -28 19 -50 21 -42 18 -66 -8 -86 -14 -10 -14 -12 2 -18 9 -4 17
-12 16 -19 -1 -6 1 -19 5 -28 12 -26 -27 -58 -72 -58 -42 0 -170 34 -186 50
-5 5 -18 10 -29 10 -14 0 -17 5 -12 20 5 16 2 20 -14 20 -15 0 -19 5 -14 16 3
9 1 19 -5 23 -7 4 -15 35 -18 69 -6 56 -9 62 -30 62 -12 0 -35 5 -50 10 -32
13 -43 5 -26 -18 21 -29 54 -103 48 -109 -7 -7 -124 44 -147 63 -8 8 -20 14
-25 14 -13 0 -49 43 -46 54 15 47 11 86 -12 133 -29 57 -33 95 -12 112 8 6 16
26 19 44 3 18 8 42 12 55 6 18 3 24 -12 28 -23 6 -43 56 -43 106 0 20 -7 41
-15 48 -18 15 -21 95 -4 106 7 4 9 21 5 43 -4 20 -6 44 -7 55 0 10 -9 27 -20
39 -12 13 -17 28 -13 40 3 11 7 32 8 48 3 38 4 39 66 43 29 2 55 8 59 13 3 5
23 20 44 32 21 13 47 33 58 44 16 17 22 19 44 9 21 -10 25 -9 25 4 0 29 44 12
50 -19 3 -15 17 -39 31 -55 14 -15 28 -35 32 -45 5 -13 13 -17 28 -12 16 5 20
3 17 -11 -2 -11 9 -26 29 -38 18 -12 30 -27 28 -33 -2 -7 3 -13 13 -14 49 -3
98 -7 107 -11 6 -1 11 0 13 5 7 21 0 35 -20 41 -29 8 -69 58 -71 88 0 13 -6
26 -11 30 -15 10 -2 20 27 22 14 0 23 4 20 9 -7 11 470 -1 501 -13 15 -5 42
-10 59 -10 48 0 166 -27 185 -42 19 -15 114 -111 153 -154 33 -37 99 -85 109
-79 4 3 -21 34 -56 71 -35 36 -62 70 -59 74 11 17 -102 133 -155 160 -19 9
-62 20 -95 24 -33 4 -69 13 -80 20 -12 8 -33 12 -47 9 -14 -3 -29 0 -32 6 -4
6 -16 11 -27 11 -11 0 -22 7 -25 15 -8 21 -31 19 -61 -5 -21 -16 -41 -20 -105
-20 l-79 0 -67 57 c-37 31 -68 60 -70 65 -2 4 -8 8 -14 8 -6 0 -32 10 -59 22
-40 19 -48 26 -43 43 8 26 9 26 28 19 9 -3 13 -10 10 -15 -3 -5 0 -9 6 -9 6 0
10 6 9 13 -4 33 2 47 21 47 11 0 20 5 20 11 0 7 11 9 31 5 28 -5 30 -4 24 17
-6 21 -5 21 9 4 10 -13 21 -17 35 -12 12 4 21 2 21 -4 0 -6 7 -11 15 -11 17 0
20 -17 4 -22 -15 -5 0 -38 18 -38 8 0 11 5 8 10 -3 6 1 10 10 10 12 0 15 5 11
16 -4 9 -1 23 5 30 6 8 8 14 3 14 -5 0 -3 4 5 9 8 5 16 26 16 46 2 42 15 59
41 52 17 -3 16 -5 -6 -15 -14 -6 -19 -11 -12 -11 7 -1 37 13 67 29 45 25 65
30 119 30 108 0 82 22 -48 40 -51 8 -63 6 -86 -10 -14 -10 -39 -22 -54 -26
-16 -4 -31 -15 -33 -24 -10 -37 -162 -55 -219 -25 -16 8 -34 15 -39 15 -21 0
-84 51 -98 79 -24 47 -20 179 8 291 13 54 29 136 34 182 11 85 14 97 76 298
65 216 76 269 76 375 0 72 -4 109 -15 130 -9 17 -16 39 -16 50 -1 26 -127 149
-260 252 -58 45 -141 116 -185 158 -85 80 -123 105 -162 105 -13 0 -34 11 -47
25 -13 14 -30 25 -39 25 -9 0 -19 5 -22 11 -5 7 -14 3 -26 -10 -40 -43 -117
-12 -104 41 4 14 18 28 36 35 22 9 29 18 29 37 0 15 6 29 13 32 7 2 13 22 14
44 2 40 25 76 42 66 5 -3 11 3 14 14 4 15 1 20 -11 18 -12 -2 -16 3 -14 20 2
12 -2 22 -7 22 -6 0 -11 7 -11 16 0 11 6 14 20 9 20 -6 28 9 10 20 -16 10 -12
22 10 28 22 6 28 29 8 26 -24 -3 -38 1 -38 11 0 5 12 9 28 9 83 1 87 4 49 39
-18 17 -23 32 -22 64 1 33 -5 50 -24 74 -14 17 -34 41 -44 53 -10 12 -16 30
-13 39 3 9 1 24 -4 32 -6 10 -4 20 7 32 9 10 12 18 7 18 -13 0 -10 50 4 59 7
4 8 12 2 21 -8 13 -10 13 -10 1 0 -12 -3 -12 -12 -3 -9 9 -72 12 -228 11 -118
0 -209 -3 -202 -6 13 -5 17 -33 4 -33 -4 0 -13 9 -20 20 -8 14 -23 20 -47 20
-38 0 -44 -12 -20 -37 9 -8 13 -23 10 -33 -3 -10 0 -20 8 -23 8 -3 17 -23 21
-45 3 -22 12 -43 18 -46 10 -5 10 -7 1 -12 -13 -6 -4 -29 25 -66 10 -12 11
-18 1 -23 -7 -5 -26 7 -48 31 -63 68 -74 92 -79 176 l-5 78 -373 0 -374 0 0
-2370z m825 2350 c3 -5 1 -10 -4 -10 -6 0 -11 5 -11 10 0 6 2 10 4 10 3 0 8
-4 11 -10z m65 -130 c0 -5 -5 -10 -11 -10 -5 0 -7 5 -4 10 3 6 8 10 11 10 2 0
4 -4 4 -10z m517 -1066 c-3 -3 -12 -4 -19 -1 -8 3 -5 6 6 6 11 1 17 -2 13 -5z
m88 -74 c4 -6 10 -8 15 -5 5 3 17 2 27 -4 10 -5 30 -14 45 -20 19 -7 26 -15
22 -26 -4 -9 1 -18 12 -22 25 -9 43 -33 44 -56 0 -10 5 -15 10 -12 6 3 10 1
10 -4 0 -6 -4 -11 -10 -11 -5 0 -10 -4 -10 -10 0 -5 11 -10 24 -10 31 0 56
-28 36 -40 -10 -6 -7 -10 14 -16 17 -4 25 -11 22 -20 -3 -8 1 -14 10 -14 9 0
18 -9 21 -20 4 -14 11 -19 23 -15 13 4 18 1 16 -12 -2 -9 -8 -19 -14 -21 -7
-2 -12 -10 -12 -18 0 -10 7 -13 23 -9 15 4 26 0 34 -14 10 -17 9 -18 -9 -13
-28 7 -15 -16 16 -28 l21 -8 -22 -9 c-21 -8 -22 -10 -8 -37 10 -18 12 -33 6
-40 -5 -6 -10 -38 -12 -71 -1 -33 -6 -68 -12 -79 -6 -12 -6 -16 1 -12 6 3 13
2 16 -3 3 -5 -2 -12 -12 -16 -16 -6 -16 -7 1 -16 9 -6 17 -20 17 -32 0 -18 2
-19 10 -7 6 10 12 11 18 5 5 -6 2 -17 -9 -27 -16 -16 -20 -16 -34 -2 -18 19
-19 7 -2 -29 6 -15 20 -30 30 -33 11 -3 17 -15 16 -32 -1 -17 -3 -21 -6 -9 -8
31 -20 18 -22 -25 -3 -54 -3 -51 3 -125 4 -40 2 -63 -4 -63 -6 0 -14 -8 -17
-17 -4 -10 -13 -24 -21 -32 -12 -13 -12 -16 2 -27 18 -13 13 -39 -10 -48 -16
-6 -19 -46 -4 -46 20 0 9 -27 -16 -40 -19 -11 -24 -20 -21 -37 2 -13 -1 -23
-6 -23 -8 0 -7 -4 0 -11 6 -6 9 -17 7 -24 -3 -6 2 -18 11 -25 17 -14 21 -90 4
-90 -6 0 -9 -7 -6 -15 4 -8 2 -17 -2 -20 -5 -3 -7 -14 -4 -25 3 -11 1 -20 -4
-20 -6 0 -8 -11 -5 -25 4 -21 1 -24 -13 -19 -14 6 -16 3 -10 -16 7 -21 5 -22
-34 -15 -34 6 -53 19 -99 66 -59 62 -79 103 -60 126 16 20 22 91 8 108 -9 11
-7 16 10 25 12 6 24 9 28 6 8 -8 42 24 42 41 0 7 -6 13 -14 13 -7 0 -20 7 -27
17 -13 15 -12 15 9 4 33 -18 42 13 11 39 -18 15 -34 19 -64 16 -22 -3 -58 -2
-80 2 -36 7 -40 10 -40 37 1 29 -1 30 -37 27 -33 -4 -42 1 -77 38 -22 24 -38
46 -36 50 3 4 -3 11 -12 14 -12 5 -14 9 -5 18 18 18 14 42 -10 68 -17 18 -23
38 -24 72 -1 29 3 48 9 48 6 0 1 10 -12 21 -14 13 -21 29 -18 40 3 11 1 22 -4
25 -15 9 -10 32 9 37 13 4 11 5 -5 6 -19 1 -23 7 -24 34 -1 17 0 37 1 42 2 6
5 35 7 65 2 30 8 57 13 58 13 5 13 32 -1 32 -6 0 -9 10 -7 23 2 12 9 21 16 19
6 -1 12 6 12 16 0 10 7 27 16 38 15 19 15 18 11 -3 -3 -13 -1 -26 4 -29 5 -3
9 1 9 8 1 19 40 -34 40 -54 0 -10 7 -18 16 -18 8 0 13 -4 9 -9 -8 -14 16 -26
43 -22 13 1 30 -3 38 -10 8 -6 17 -9 21 -6 3 4 12 2 19 -4 7 -6 14 -6 18 0 3
5 15 7 26 4 15 -4 20 0 20 15 0 12 8 26 18 31 15 9 11 16 -35 58 -43 41 -50
52 -46 76 3 15 1 27 -5 27 -13 0 -92 110 -92 127 0 15 16 17 24 4 3 -5 19 -14
35 -19 25 -9 29 -8 24 4 -3 8 2 23 11 33 13 14 14 20 4 29 -13 11 -16 67 -5
79 4 3 2 12 -5 20 -8 11 -7 17 8 28 23 17 31 18 39 5z m-80 -1191 c-3 -4 1 -9
7 -12 7 -2 10 -8 6 -12 -8 -9 -57 26 -58 42 0 18 24 22 37 5 7 -8 10 -18 8
-23z m160 -49 c3 -5 1 -10 -5 -10 -7 0 -10 -7 -6 -15 7 -19 -4 -19 -29 -2 -10
8 -15 19 -11 25 9 15 43 16 51 2z m-118 -42 c-6 -4 -17 -2 -25 4 -10 9 -10 13
-1 19 7 4 18 2 24 -4 9 -9 10 -14 2 -19z m54 -41 c-13 -13 -26 -3 -16 12 3 6
11 8 17 5 6 -4 6 -10 -1 -17z m-51 -52 c-7 -8 -17 -12 -22 -9 -6 4 -4 10 6 16
9 5 17 17 17 26 1 15 2 15 6 -1 3 -10 -1 -24 -7 -32z m30 -25 c0 -5 -4 -10
-10 -10 -5 0 -10 5 -10 10 0 6 5 10 10 10 6 0 10 -4 10 -10z m-290 -271 c0 -5
6 -9 13 -9 11 0 27 -22 64 -88 9 -18 10 -29 2 -44 -8 -15 -7 -24 5 -37 9 -10
17 -35 18 -55 1 -20 5 -39 9 -42 5 -3 3 -13 -3 -24 -15 -24 -28 -16 -29 18 0
42 -42 164 -59 173 -8 4 -29 13 -46 19 -26 9 -31 16 -26 33 3 12 10 26 16 30
8 6 7 10 -1 14 -24 9 -14 30 12 25 14 -2 25 -8 25 -13z m428 -120 c19 -7 21
-12 12 -28 -8 -16 -20 -19 -65 -18 -30 1 -55 6 -55 10 0 4 0 16 0 26 0 30 43
34 108 10z m-446 -111 c-7 -7 -12 -8 -12 -2 0 14 12 26 19 19 2 -3 -1 -11 -7
-17z m-17 -35 c6 -31 5 -33 -19 -33 -19 0 -26 5 -26 20 0 11 5 20 10 20 6 0
10 10 10 22 0 30 16 11 25 -29z m425 32 c0 -9 6 -12 16 -8 12 4 15 2 12 -8 -2
-8 -17 -15 -31 -17 -21 -3 -26 0 -21 12 3 9 1 16 -5 16 -6 0 -11 5 -11 10 0 6
9 10 20 10 11 0 20 -7 20 -15z m-380 -125 c0 -11 -4 -20 -9 -20 -5 0 -7 9 -4
20 3 11 7 20 9 20 2 0 4 -9 4 -20z m107 -41 c7 -13 13 -18 13 -11 0 6 4 12 10
12 5 0 7 -6 4 -14 -3 -7 2 -21 11 -30 9 -9 14 -20 11 -25 -3 -5 0 -14 8 -20 9
-7 13 -28 11 -59 -1 -26 2 -53 8 -60 5 -6 10 -31 11 -55 1 -23 5 -48 10 -55 4
-7 5 -16 2 -19 -3 -4 -6 -1 -6 5 0 6 -12 0 -27 -14 -23 -21 -29 -23 -31 -10
-2 9 -7 16 -12 16 -4 0 -11 21 -15 47 -4 26 -16 72 -27 102 -15 38 -17 56 -9
59 17 6 13 38 -9 82 -17 33 -18 43 -8 60 16 24 29 21 45 -11z m-951 -1072 c-5
-21 -43 -44 -53 -33 -8 8 21 55 36 59 22 5 24 1 17 -26z m1895 -14 c22 -28 39
-61 39 -77 0 -16 41 -29 63 -20 8 3 18 1 21 -4 3 -6 15 -8 26 -5 16 4 19 2 14
-11 -4 -11 -1 -16 10 -16 9 0 16 -4 16 -9 0 -11 -53 -1 -61 11 -3 5 -22 11
-42 12 -26 2 -46 13 -71 40 -20 20 -40 36 -46 36 -6 0 -9 4 -5 9 3 5 1 12 -4
16 -13 8 -2 35 14 35 6 0 18 -8 26 -17z m-1941 -43 c0 -5 -4 -10 -10 -10 -5 0
-10 5 -10 10 0 6 5 10 10 10 6 0 10 -4 10 -10z"/>
<path d="M4490 4726 c9 -11 18 -13 37 -5 18 7 28 6 33 -1 8 -13 53 -7 58 8 2
8 -18 12 -68 12 -62 0 -71 -2 -60 -14z"/>
<path d="M4615 4220 c-3 -5 0 -10 7 -11 7 0 25 -3 41 -5 15 -3 27 0 27 6 0 17
-31 24 -41 9 -6 -10 -9 -10 -9 -1 0 14 -16 16 -25 2z"/>
<path d="M4702 4208 c7 -19 38 -22 38 -4 0 10 -9 16 -21 16 -12 0 -19 -5 -17
-12z"/>
<path d="M4325 4168 c4 -18 15 -43 26 -54 18 -19 18 -22 4 -28 -25 -9 -28 -8
-63 24 -18 17 -37 30 -42 30 -5 0 -10 7 -12 15 -2 9 -8 11 -15 7 -16 -10 -5
-52 13 -52 8 0 22 -17 31 -37 10 -21 31 -44 46 -51 16 -8 31 -20 34 -28 3 -8
11 -14 19 -14 8 0 14 -7 14 -15 0 -9 6 -12 16 -8 9 3 19 1 23 -4 4 -7 27 -8
66 -2 39 5 64 4 72 -3 9 -7 18 -7 29 3 20 17 47 23 107 23 l47 1 0 53 0 52
-63 0 c-43 0 -75 6 -102 20 -22 11 -45 20 -52 20 -7 0 -13 5 -13 10 0 6 -24
10 -54 10 -68 0 -85 7 -97 36 -4 13 -15 24 -24 24 -12 0 -14 -7 -10 -32z m80
-99 c10 -14 1 -21 -19 -13 -9 3 -13 10 -10 15 7 12 21 11 29 -2z"/>
<path d="M4200 4179 c0 -5 5 -7 10 -4 6 3 10 8 10 11 0 2 -4 4 -10 4 -5 0 -10
-5 -10 -11z"/>
<path d="M1280 3860 c0 -5 5 -10 11 -10 5 0 7 5 4 10 -3 6 -8 10 -11 10 -2 0
-4 -4 -4 -10z"/>
<path d="M4570 3613 l-35 -15 37 -15 c33 -13 40 -13 72 2 20 10 36 23 36 30 0
17 -68 16 -110 -2z"/>
<path d="M4690 3620 c0 -6 7 -13 15 -16 8 -4 15 -12 15 -20 0 -8 5 -14 10 -14
6 0 10 14 10 30 0 25 -4 30 -25 30 -14 0 -25 -5 -25 -10z"/>
<path d="M4725 3510 c-3 -5 -1 -10 4 -10 6 0 11 5 11 10 0 6 -2 10 -4 10 -3 0
-8 -4 -11 -10z"/>
<path d="M2864 3495 c-11 -8 -31 -15 -45 -15 -14 0 -68 -14 -120 -30 -52 -17
-115 -31 -141 -32 -28 -1 -45 -5 -41 -11 4 -6 -2 -8 -15 -5 -12 3 -26 0 -32
-7 -5 -7 -30 -12 -55 -12 -45 0 -72 -12 -47 -20 7 -3 19 -11 26 -19 8 -8 20
-14 27 -14 6 0 0 -9 -15 -21 -32 -25 -36 -69 -7 -69 11 0 26 -3 34 -6 10 -3
26 6 42 24 15 17 37 33 50 36 12 3 25 16 28 28 l6 23 21 -23 c12 -12 18 -27
15 -32 -3 -6 -1 -10 4 -10 6 0 11 6 11 13 1 6 9 2 19 -10 11 -13 22 -23 26
-23 3 0 5 10 3 23 -2 17 5 26 36 40 29 13 42 14 52 6 10 -8 14 -8 14 0 0 6 5
11 11 11 8 0 10 -17 7 -49 -5 -48 -4 -50 21 -53 15 -2 31 -13 38 -28 8 -15 13
-19 13 -9 0 12 12 15 63 15 39 -1 67 4 76 12 12 12 17 11 31 -7 20 -28 34 -16
15 13 -22 30 -19 51 8 52 12 0 42 3 67 6 83 10 310 -59 375 -115 22 -18 57
-42 78 -52 20 -9 37 -24 37 -31 0 -8 10 -14 24 -14 14 0 31 -9 40 -21 8 -12
25 -27 37 -33 12 -6 27 -20 33 -31 6 -11 17 -24 24 -28 7 -5 21 -17 31 -28 18
-20 19 -20 41 18 13 21 23 45 23 53 0 8 4 20 8 26 6 7 3 16 -6 24 -8 7 -15 19
-15 26 0 8 -5 14 -10 14 -6 0 -22 8 -36 17 -15 9 -46 17 -70 18 -40 1 -78 15
-41 15 20 0 22 11 5 28 -9 9 -9 12 0 12 7 0 12 5 12 11 0 6 -6 9 -13 6 -8 -3
-19 -2 -26 3 -7 4 -28 4 -47 0 -19 -4 -34 -5 -34 0 0 8 -81 46 -92 43 -7 -3
-78 20 -113 36 -11 5 -62 19 -113 31 -51 12 -95 26 -98 31 -2 5 -18 6 -35 2
-25 -5 -28 -3 -23 12 6 14 2 16 -22 13 -43 -5 -77 31 -70 74 3 18 10 34 15 36
30 10 3 18 -68 19 -55 2 -84 -2 -97 -12z m16 -101 c0 -2 -12 -4 -27 -4 -21 0
-24 3 -14 9 13 8 41 5 41 -5z m115 5 c15 2 17 0 9 -9 -15 -15 -46 -10 -52 9
-3 10 0 11 9 5 8 -5 23 -7 34 -5z m-228 -41 c-3 -8 -6 -5 -6 6 -1 11 2 17 5
13 3 -3 4 -12 1 -19z"/>
<path d="M2265 3410 c-3 -5 -1 -10 4 -10 6 0 11 5 11 10 0 6 -2 10 -4 10 -3 0
-8 -4 -11 -10z"/>
<path d="M2305 3389 c-4 -6 -13 -8 -21 -5 -8 3 -14 1 -14 -4 0 -14 50 -24 62
-12 11 11 3 32 -12 32 -5 0 -12 -5 -15 -11z"/>
<path d="M3050 3236 c0 -2 7 -9 15 -16 12 -10 15 -10 15 4 0 9 -7 16 -15 16
-8 0 -15 -2 -15 -4z"/>
<path d="M4716 1884 c-18 -18 -18 -19 -2 -22 10 -2 20 -1 23 1 2 3 3 13 1 23
-3 16 -4 16 -22 -2z"/>
<path d="M2360 1520 c0 -5 10 -10 23 -10 18 0 19 2 7 10 -19 13 -30 13 -30 0z"/>
<path d="M4696 1305 c-17 -13 -17 -14 3 -24 29 -16 41 -14 41 8 0 25 -21 32
-44 16z"/>
<path d="M2212 1254 c-10 -5 -10 -9 -1 -20 6 -8 8 -14 3 -14 -5 0 15 -12 44
-26 60 -29 97 -29 97 0 0 31 -106 76 -143 60z"/>
<path d="M4583 1253 c-20 -3 -33 -10 -33 -19 0 -20 30 -17 65 6 17 11 23 19
15 18 -8 -1 -30 -3 -47 -5z"/>
<path d="M4540 1130 c0 -5 5 -10 10 -10 6 0 10 5 10 10 0 6 -4 10 -10 10 -5 0
-10 -4 -10 -10z"/>
<path d="M4570 1130 c0 -13 43 -20 59 -10 17 10 13 12 -31 15 -16 1 -28 -1
-28 -5z"/>
<path d="M4480 864 c0 -8 5 -12 10 -9 6 3 10 10 10 16 0 5 -4 9 -10 9 -5 0
-10 -7 -10 -16z"/>
<path d="M3776 812 c-3 -6 3 -21 13 -33 16 -20 22 -22 33 -11 9 9 10 17 2 30
-13 20 -39 27 -48 14z"/>
<path d="M4340 755 c0 -10 7 -15 18 -13 21 4 19 22 -2 26 -10 2 -16 -3 -16
-13z"/>
<path d="M4145 590 c-3 -5 -1 -10 4 -10 6 0 11 5 11 10 0 6 -2 10 -4 10 -3 0
-8 -4 -11 -10z"/>
<path d="M3861 559 c-32 -26 -19 -36 16 -12 15 11 35 23 43 26 9 3 5 6 -10 6
-14 0 -36 -9 -49 -20z"/>
<path d="M3724 448 c-4 -6 -2 -14 5 -16 8 -3 6 -8 -6 -18 -17 -13 -17 -13 5
-14 15 0 26 -7 29 -20 8 -30 40 -25 48 7 3 15 11 31 17 34 6 4 8 14 5 23 -8
19 -92 23 -103 4z"/>
<path d="M3438 386 c-10 -7 -18 -23 -18 -35 0 -24 -23 -36 -105 -53 -61 -14
-90 -37 -80 -67 6 -21 25 -29 25 -11 0 14 88 51 114 49 12 -1 29 1 38 5 9 4
21 5 26 2 15 -9 62 18 62 37 0 13 -9 17 -37 18 l-38 1 43 11 c43 10 52 23 30
45 -16 16 -39 15 -60 -2z"/>
<path d="M2611 291 c-19 -12 -5 -46 25 -59 32 -15 43 7 20 43 -18 27 -24 29
-45 16z"/>
<path d="M2470 240 c0 -5 5 -10 10 -10 6 0 10 5 10 10 0 6 -4 10 -10 10 -5 0
-10 -4 -10 -10z"/>
<path d="M3177 223 c-11 -10 -8 -23 4 -23 6 0 17 7 25 15 14 13 13 15 -4 15
-10 0 -22 -3 -25 -7z"/>
<path d="M3135 179 c-4 -6 -13 -8 -21 -5 -8 3 -14 1 -14 -4 0 -11 30 -13 54
-4 9 3 13 10 10 15 -7 12 -21 11 -29 -2z"/>
<path d="M2976 132 c-9 -8 -7 -32 2 -32 5 0 16 6 27 13 17 13 17 14 -3 19 -11
3 -23 3 -26 0z"/>
</g>
</svg>
