<?xml version="1.0" standalone="no"?>
<!DOCTYPE svg PUBLIC "-//W3C//DTD SVG 20010904//EN"
 "http://www.w3.org/TR/2001/REC-SVG-20010904/DTD/svg10.dtd">
<svg version="1.0" xmlns="http://www.w3.org/2000/svg"
 width="329.000000pt" height="329.000000pt" viewBox="0 0 329.000000 329.000000"
 preserveAspectRatio="xMidYMid meet">

<g transform="translate(0.000000,329.000000) scale(0.100000,-0.100000)"
fill="#333333" stroke="none">
<path d="M27 3284 c-3 -3 -3 -12 0 -20 4 -12 8 -12 21 -2 12 11 16 11 20 0 2
-7 15 -25 28 -41 24 -29 82 -45 123 -34 17 4 18 9 9 34 -5 16 -16 29 -24 29
-7 0 -18 9 -24 20 -8 15 -21 20 -50 20 -21 0 -40 -5 -43 -12 -4 -10 -7 -10
-18 0 -14 13 -32 16 -42 6z"/>
<path d="M230 3275 c0 -12 7 -15 25 -13 33 4 33 22 0 26 -18 2 -25 -1 -25 -13z"/>
<path d="M360 3285 c0 -4 9 -19 21 -33 19 -25 19 -27 4 -30 -10 -2 -28 8 -41
25 l-24 28 6 -28 c5 -23 3 -29 -15 -34 -24 -6 -28 -23 -5 -23 8 0 22 -15 30
-32 32 -67 39 -78 51 -78 7 0 13 -9 13 -19 0 -20 46 -82 58 -79 12 4 56 -24
85 -54 34 -34 45 -35 57 -5 5 12 9 17 9 10 1 -7 17 -28 37 -47 34 -33 38 -56
9 -56 -7 0 -16 6 -19 13 -3 6 -3 1 0 -13 4 -14 15 -33 25 -43 28 -26 59 -4 56
40 -1 18 -4 33 -7 33 -3 0 -11 4 -19 9 -11 7 -10 15 4 45 10 20 21 36 26 36 6
0 5 9 -1 21 -6 11 -9 25 -7 32 3 7 10 0 16 -15 6 -16 16 -28 22 -28 7 0 9 -10
6 -29 -3 -15 -1 -33 6 -40 6 -6 7 -11 2 -11 -6 -1 1 -7 15 -15 26 -14 27 -13
-25 -30 -9 -2 -15 -16 -15 -35 0 -26 3 -30 29 -30 21 0 30 -6 34 -21 4 -14 11
-20 21 -16 8 3 29 2 45 -3 36 -10 40 1 11 30 -14 14 -16 20 -7 20 8 0 22 -9
32 -20 10 -11 24 -20 31 -20 8 0 16 -11 20 -25 7 -28 117 -135 139 -135 22 0
18 20 -9 49 -13 15 -31 38 -40 52 -16 26 -16 26 9 22 30 -6 31 -4 4 41 -22 38
-37 44 -57 24 -9 -9 -16 -7 -31 6 -11 10 -19 21 -18 25 1 3 -15 22 -36 41 -33
30 -43 48 -46 83 -1 4 -7 7 -15 7 -18 0 -101 93 -126 141 -10 19 -26 41 -34
48 -9 8 -16 22 -16 33 0 10 -4 17 -9 13 -5 -3 -12 -1 -15 4 -4 5 3 12 14 16
25 8 25 17 1 39 -19 18 -47 14 -36 -5 7 -10 -8 -12 -18 -2 -4 3 1 12 11 19 13
10 15 17 6 31 -16 27 -40 23 -36 -6 l2 -24 -21 26 c-11 15 -30 27 -41 27 -19
0 -20 -1 -4 -22 8 -13 34 -51 57 -85 23 -35 45 -63 48 -63 8 0 35 -60 29 -65
-5 -6 -76 90 -88 118 -8 21 -9 20 -9 -6 l-1 -28 -36 27 c-34 26 -66 82 -61
107 1 8 -18 13 -55 15 -32 2 -58 0 -58 -3z m74 -133 c3 -5 -1 -9 -9 -9 -8 0
-15 4 -15 9 0 4 4 8 9 8 6 0 12 -4 15 -8z m27 -78 c-6 -11 -11 -13 -11 -6 0 6
-7 12 -15 12 -16 0 -19 9 -9 35 6 15 9 15 27 -3 15 -16 17 -24 8 -38z m89 -64
c0 -5 -2 -10 -4 -10 -3 0 -8 5 -11 10 -3 6 -1 10 4 10 6 0 11 -4 11 -10z m275
-217 c3 -9 2 -20 -3 -25 -4 -4 -13 5 -19 21 -8 24 -8 28 2 24 8 -2 16 -12 20
-20z"/>
<path d="M840 3286 c0 -2 7 -9 15 -16 9 -7 15 -8 15 -2 0 5 -7 12 -15 16 -8 3
-15 4 -15 2z"/>
<path d="M880 3285 c0 -3 17 -29 37 -57 20 -29 30 -47 23 -40 -26 23 -31 12
-9 -20 13 -18 27 -36 32 -39 5 -4 6 -16 2 -28 -4 -13 -2 -21 5 -21 6 0 8 5 4
13 -5 8 -2 7 9 -2 22 -18 34 -7 17 16 -8 10 -1 5 15 -11 16 -17 31 -24 33 -18
2 6 -33 57 -78 112 -75 92 -90 108 -90 95z"/>
<path d="M969 3213 c33 -43 72 -87 88 -97 17 -10 42 -39 58 -63 19 -31 36 -46
57 -50 16 -3 39 -19 52 -36 24 -30 50 -30 39 1 -8 24 -85 102 -94 96 -5 -2 -6
-12 -3 -22 5 -14 4 -14 -4 -2 -6 8 -9 17 -6 21 5 9 -35 79 -46 79 -8 0 -23 39
-21 53 1 5 -3 6 -9 2 -8 -5 -8 -11 0 -21 7 -7 10 -19 8 -25 -2 -6 -16 6 -30
27 -52 76 -93 114 -121 114 -26 0 -26 -1 32 -77z m152 -110 c13 -16 12 -17 -3
-4 -10 7 -18 15 -18 17 0 8 8 3 21 -13z"/>
<path d="M2665 3278 c-2 -7 -5 -22 -7 -33 -2 -12 -10 -19 -21 -17 -9 2 -17 -2
-17 -8 0 -5 6 -10 13 -10 9 0 13 -15 12 -52 -1 -41 -5 -53 -21 -59 -14 -5 -15
-8 -4 -9 8 -2 21 -2 28 -1 16 2 15 -11 -4 -35 -8 -10 -13 -14 -9 -7 3 8 -9 16
-35 24 -22 7 -40 16 -40 21 0 5 -5 6 -11 2 -8 -4 -7 -9 2 -16 11 -7 11 -11 1
-15 -6 -2 -9 -9 -6 -14 3 -6 -2 -19 -11 -29 -17 -18 -5 -38 15 -25 6 3 10 2
10 -3 0 -13 -88 -41 -111 -35 -10 3 -16 10 -12 16 4 6 1 7 -6 2 -8 -4 -10 -17
-6 -32 5 -21 3 -24 -15 -18 -15 5 -20 2 -20 -12 0 -20 35 -29 46 -11 4 6 10 5
15 -3 14 -23 10 -32 -11 -26 -22 6 -37 -8 -20 -18 13 -8 13 -35 0 -35 -6 0
-20 9 -32 20 -24 22 -38 26 -38 10 0 -6 11 -15 25 -20 24 -9 35 -40 14 -40 -5
0 -17 -16 -25 -35 -14 -35 -44 -48 -44 -20 0 8 5 15 10 15 6 0 10 6 10 13 0 8
-7 14 -15 14 -10 0 -15 -10 -15 -29 0 -17 -8 -33 -20 -40 -25 -16 -25 -25 -2
-31 16 -4 16 -4 0 -11 -11 -5 -23 -2 -33 8 -21 20 -35 20 -35 0 0 -8 4 -13 9
-10 5 3 11 -8 13 -24 3 -22 1 -27 -7 -20 -15 12 -25 3 -18 -16 3 -8 -5 -17
-20 -23 -14 -5 -28 -15 -32 -21 -3 -5 -11 -8 -16 -5 -5 4 -9 -1 -9 -9 0 -9 5
-16 10 -16 6 0 9 -10 9 -22 -1 -19 -2 -19 -6 -5 -5 18 -6 18 -24 1 -10 -9 -19
-25 -19 -34 0 -10 -7 -20 -15 -23 -8 -4 -18 -21 -23 -39 -7 -26 -5 -39 9 -59
17 -24 17 -28 3 -33 -9 -3 -20 -4 -24 -1 -5 3 -11 1 -15 -5 -3 -6 1 -13 10
-16 12 -5 13 -9 4 -20 -9 -11 -8 -14 5 -14 9 0 16 -4 16 -9 0 -5 -6 -9 -12 -8
-53 2 -80 -16 -40 -26 10 -3 6 -5 -11 -6 -40 -2 -43 -24 -10 -73 16 -24 42
-68 58 -98 15 -30 45 -74 66 -98 21 -24 57 -74 81 -112 26 -42 50 -70 60 -70
18 0 63 -53 132 -153 22 -31 45 -57 52 -57 7 0 30 -20 50 -44 30 -37 42 -44
63 -40 22 4 30 -2 51 -36 13 -22 27 -40 32 -40 4 0 11 15 16 33 7 26 24 42 93
85 81 51 84 55 81 87 -3 31 2 37 74 92 90 67 158 117 194 140 126 83 159 103
164 103 3 0 6 -68 6 -151 0 -133 -2 -154 -17 -165 -17 -13 -17 -14 0 -8 13 5
17 1 17 -19 0 -15 -7 -27 -17 -31 -10 -3 -38 -21 -63 -41 -25 -19 -52 -38 -60
-42 -44 -22 -120 -79 -120 -90 0 -8 13 -13 31 -13 20 0 28 4 23 12 -5 8 0 9
14 6 15 -4 22 -2 22 8 0 7 13 20 29 29 16 8 32 23 35 32 6 19 60 65 89 76 15
6 17 -2 16 -76 l0 -82 -48 -32 c-27 -17 -65 -35 -85 -38 -29 -6 -36 -12 -36
-31 0 -14 6 -24 14 -24 13 0 13 -4 0 -27 -7 -16 -14 -34 -14 -41 0 -7 -8 -15
-17 -19 -10 -3 -31 -16 -48 -28 -35 -26 -143 -68 -155 -60 -20 12 -40 -7 -33
-33 4 -17 2 -23 -6 -18 -6 4 -11 19 -11 33 0 18 -4 24 -15 20 -8 -4 -17 -2
-20 3 -4 6 -14 10 -25 10 -10 0 -32 16 -49 35 -27 31 -34 34 -51 25 -20 -11
-20 -13 15 -61 22 -32 35 -59 32 -72 -3 -20 -5 -19 -16 8 -7 16 -18 37 -25 45
-7 8 -21 36 -31 63 -10 26 -22 47 -26 47 -5 0 -9 7 -9 15 0 8 -8 15 -18 15
-25 0 -33 -9 -21 -24 46 -56 46 -57 30 -92 -14 -29 -21 -33 -46 -31 -25 2 -30
-1 -29 -20 0 -13 -5 -23 -13 -23 -8 0 -12 4 -9 8 3 5 -4 19 -15 31 -17 18 -18
22 -4 27 8 4 21 1 29 -5 11 -9 18 -8 30 4 17 17 23 60 7 50 -5 -3 -12 -1 -16
5 -4 7 -13 7 -26 -1 -20 -10 -20 -10 -4 15 9 14 13 31 9 37 -4 8 -3 9 4 5 7
-4 12 -2 12 4 0 12 -11 24 -44 50 -19 15 -19 14 -2 -15 14 -22 8 -19 -23 15
-42 46 -47 67 -9 34 13 -10 7 1 -12 24 -19 24 -38 42 -42 40 -3 -1 -18 8 -32
21 -30 28 -48 21 -21 -9 16 -18 17 -22 2 -52 -11 -22 -12 -35 -5 -39 6 -4 8
-11 4 -17 -3 -6 3 -14 15 -17 12 -4 18 -12 15 -21 -4 -10 3 -14 24 -14 41 0
46 -17 15 -46 -14 -13 -23 -29 -20 -34 3 -6 2 -10 -2 -10 -17 0 -75 68 -69 79
6 9 -8 16 -17 9 -1 -2 -13 7 -26 19 -17 15 -21 27 -16 43 5 16 4 20 -5 15 -9
-5 -10 5 -5 39 6 39 5 45 -8 41 -9 -4 -16 2 -20 15 -3 12 -10 19 -16 15 -7 -4
-11 4 -11 19 0 21 -5 26 -25 26 -16 0 -28 7 -31 18 -3 9 -10 24 -15 32 -12 21
-55 112 -62 133 -4 9 -2 17 4 17 14 0 0 41 -20 60 -26 25 -62 80 -52 80 5 0
13 -5 16 -10 3 -5 11 -10 17 -10 6 0 2 10 -10 23 -12 13 -22 27 -22 33 0 5
-16 26 -36 48 -43 47 -69 86 -58 86 5 0 19 -15 32 -33 27 -39 98 -118 86 -96
-19 34 -110 147 -129 159 -18 12 -19 12 -5 -4 13 -16 12 -20 -4 -31 -17 -13
-17 -14 3 -27 27 -17 27 -31 0 -23 -20 7 -21 4 -16 -23 5 -26 3 -31 -18 -36
-13 -3 -27 -15 -30 -26 -3 -11 -13 -20 -22 -20 -9 0 -27 -12 -40 -26 -19 -21
-22 -29 -11 -35 9 -6 2 -9 -20 -9 -18 0 -42 -6 -53 -12 -18 -11 -23 -10 -40
12 -11 14 -29 35 -41 48 -20 22 -20 24 -5 60 9 20 18 50 22 66 3 16 14 30 25
33 11 3 20 10 20 15 0 6 -7 8 -15 5 -23 -10 -25 7 -4 41 22 37 25 52 7 34 -19
-19 -30 -14 -23 9 5 14 3 19 -3 15 -11 -6 -28 31 -19 40 9 9 85 -16 89 -28 3
-9 12 -8 31 5 14 9 40 17 56 17 17 0 42 5 56 12 24 11 29 8 80 -46 30 -32 55
-60 55 -62 0 -8 66 -74 74 -74 16 0 4 29 -19 44 -14 9 -25 25 -25 35 0 10 -6
23 -13 29 -7 6 -28 33 -46 59 -29 43 -30 45 -4 16 33 -37 77 -91 97 -118 8
-11 18 -17 22 -12 4 4 -5 20 -19 35 -15 16 -27 35 -27 43 0 26 -121 182 -132
171 -7 -7 -4 -21 10 -44 18 -29 19 -35 7 -52 -12 -15 -17 -17 -29 -7 -8 7 -20
10 -25 6 -11 -6 -44 22 -54 48 -7 19 -47 43 -47 28 0 -5 5 -13 10 -16 20 -12
10 -26 -10 -15 -16 8 -20 8 -20 -3 0 -17 -48 -29 -56 -15 -4 6 -24 8 -45 6
-22 -2 -39 0 -39 4 0 11 22 49 38 66 6 7 12 20 12 27 0 7 7 15 16 17 11 2 3
11 -24 26 l-41 23 6 -37 c6 -33 4 -36 -18 -32 -16 2 -24 10 -24 22 0 11 -6 21
-13 24 -6 2 -12 -3 -12 -12 0 -9 -7 -16 -15 -16 -8 0 -12 6 -9 14 6 17 -24 86
-37 86 -5 0 -9 7 -9 15 0 8 -5 24 -12 35 -10 15 -9 22 5 38 9 10 17 29 18 43
0 13 3 18 6 12 2 -7 9 -13 14 -13 5 0 3 13 -6 30 -18 35 -19 44 -3 34 8 -5 9
-2 5 10 -6 15 -3 17 18 12 14 -4 25 -4 25 -1 0 2 -21 32 -46 65 -45 59 -69 77
-57 43 5 -14 3 -15 -6 -7 -16 15 -51 6 -51 -12 0 -9 10 -12 29 -10 19 2 32 -2
35 -10 4 -10 -2 -14 -18 -14 -14 0 -32 -3 -41 -6 -12 -5 -16 -2 -13 12 2 12
-3 19 -13 19 -9 0 -39 25 -65 55 -27 30 -54 61 -61 67 -6 7 -19 10 -27 7 -9
-3 -16 -1 -16 5 0 6 5 11 10 11 18 0 10 24 -20 59 -15 18 -26 40 -23 48 6 15
-45 75 -58 68 -4 -3 -18 9 -30 27 -13 17 -17 28 -10 24 10 -7 11 -4 2 12 -14
27 -28 35 -63 36 -20 1 -28 -4 -28 -16 0 -9 -4 -19 -10 -23 -5 -3 -19 -20 -31
-37 -19 -26 -20 -29 -4 -21 10 6 26 8 36 6 21 -6 26 -29 7 -35 -6 -2 -8 -10
-4 -16 4 -8 16 -10 28 -6 13 4 26 -1 39 -15 23 -24 24 -37 4 -45 -29 -11 -16
-25 15 -16 29 8 36 1 31 -32 0 -5 9 -8 20 -8 25 0 89 -37 89 -51 0 -6 8 -8 19
-4 10 3 23 0 28 -7 20 -27 35 -78 28 -95 -12 -26 -12 -25 -19 -58 -15 -59 -56
-88 -87 -59 -16 15 -17 14 -13 -3 4 -14 -2 -23 -21 -31 -43 -20 -62 -2 -89 81
-3 9 -15 17 -26 17 -22 0 -40 -34 -40 -76 0 -15 -6 -24 -16 -24 -11 0 -15 6
-11 19 3 11 -2 29 -10 40 -8 12 -12 21 -9 21 3 0 -2 8 -12 18 -35 37 -62 72
-62 81 0 5 -21 16 -47 25 -39 14 -50 14 -58 3 -6 -7 -24 -12 -43 -10 -28 2
-32 0 -32 -23 0 -16 -4 -23 -11 -18 -6 3 -9 19 -7 34 3 19 0 26 -8 23 -7 -2
-25 14 -40 36 -15 23 -30 41 -35 41 -5 0 -16 -11 -25 -25 -21 -33 -11 -58 59
-145 57 -70 81 -81 121 -55 23 15 25 15 34 -2 6 -10 8 -31 5 -46 -3 -16 -1
-27 6 -27 6 0 11 -17 11 -38 0 -46 13 -66 60 -91 19 -10 37 -27 39 -37 5 -26
32 -45 55 -39 21 4 86 -30 86 -46 0 -4 7 -6 15 -3 8 4 15 15 15 25 0 14 7 19
28 20 23 0 24 2 7 8 -19 7 -18 9 8 33 15 14 27 30 27 36 0 14 96 93 103 85 4
-3 13 0 21 6 9 8 27 10 46 6 25 -5 30 -3 30 12 1 16 2 16 12 -2 6 -11 12 -21
13 -23 1 -1 15 2 30 8 22 9 31 7 46 -6 26 -23 25 -47 -1 -39 -11 4 -20 2 -20
-4 0 -6 5 -11 11 -11 6 0 8 -7 5 -16 -4 -9 -1 -23 5 -30 6 -7 8 -18 5 -23 -11
-18 15 -23 33 -7 23 21 37 21 20 0 -11 -14 -11 -18 2 -28 8 -6 21 -26 28 -44
12 -27 16 -30 29 -20 12 10 16 10 19 1 3 -7 11 -13 19 -13 8 0 14 -5 14 -11 0
-5 -4 -7 -10 -4 -17 10 -33 -5 -20 -20 8 -9 5 -14 -10 -18 -18 -5 -20 -8 -9
-26 11 -16 10 -23 -3 -38 -8 -10 -13 -24 -11 -30 6 -17 43 -17 43 0 0 7 7 4
15 -7 14 -18 13 -21 -10 -36 -19 -13 -22 -19 -13 -28 7 -7 18 -12 25 -12 16 0
17 -27 1 -32 -7 -3 -13 -19 -14 -37 -1 -27 0 -30 13 -19 13 10 15 9 11 -7 -2
-11 -9 -19 -15 -18 -7 2 -11 -11 -11 -30 1 -17 -2 -64 -7 -103 -7 -69 -7 -71
19 -91 14 -12 26 -28 26 -38 0 -9 5 -13 10 -10 6 4 8 11 5 16 -8 11 -5 11 33
-2 30 -10 42 -32 42 -78 l0 -24 -25 23 c-14 13 -25 18 -25 11 0 -6 16 -25 35
-42 19 -17 35 -37 35 -45 0 -8 9 -14 21 -14 12 0 23 -8 26 -18 4 -18 66 -48
89 -44 7 1 9 -7 7 -22 -4 -17 1 -28 15 -37 11 -7 18 -18 15 -25 -6 -15 33 -38
49 -28 7 4 8 3 4 -4 -14 -22 5 -34 25 -16 18 16 19 16 19 -9 0 -18 -5 -27 -16
-27 -8 0 -13 -4 -9 -10 3 -5 12 -7 20 -3 18 6 51 -31 64 -72 5 -16 10 -22 10
-12 1 9 7 17 14 17 23 0 27 -12 11 -28 -13 -12 -13 -16 -2 -23 18 -12 56 -11
63 1 12 20 30 9 41 -25 9 -28 8 -35 -2 -35 -8 0 -11 -6 -8 -15 4 -8 1 -15 -5
-15 -6 0 -11 4 -11 9 0 5 -9 7 -21 4 -15 -4 -20 -2 -17 10 3 18 1 19 -28 11
-30 -8 -29 -61 2 -68 22 -6 38 -34 39 -66 0 -8 11 -17 25 -20 l25 -6 -32 -17
c-18 -9 -40 -17 -49 -17 -16 0 -16 1 1 13 28 22 9 40 -21 21 -13 -9 -26 -15
-28 -13 -1 2 -28 42 -59 89 -31 47 -67 96 -81 109 -30 28 -33 44 -8 39 29 -6
40 20 26 61 -14 41 -26 48 -44 26 -23 -27 -33 -17 -26 26 6 38 4 43 -32 77
-69 66 -90 82 -103 82 -11 0 -11 2 0 9 12 7 3 22 -40 73 -30 34 -60 69 -66 76
-7 7 -13 19 -13 27 0 11 -29 30 -35 23 -2 -2 2 -32 7 -68 10 -68 5 -259 -11
-395 -5 -44 -12 -205 -15 -358 -3 -154 -8 -283 -11 -288 -3 -5 -6 -41 -6 -81
0 -91 -6 -118 -25 -111 -8 3 -14 0 -14 -6 0 -6 -5 -11 -11 -11 -6 0 -8 7 -5
15 3 8 9 22 12 30 4 9 1 15 -9 15 -10 0 -16 -12 -19 -35 -2 -19 0 -35 5 -35 5
0 4 -7 -3 -15 -6 -8 -9 -18 -6 -24 3 -5 2 -11 -3 -13 -5 -1 -10 -34 -12 -73
-2 -38 -5 -76 -7 -82 -3 -8 -24 -13 -58 -13 -53 0 -54 0 -54 30 0 17 -4 30
-10 30 -5 0 -10 -13 -10 -30 l0 -30 -84 0 c-80 0 -85 1 -88 23 -2 14 -11 23
-25 25 -19 3 -23 -1 -23 -22 l0 -26 -105 0 c-63 0 -105 4 -105 10 0 13 -37 13
-45 0 -8 -13 -815 -13 -815 0 0 5 13 16 29 24 32 17 47 42 28 49 -8 2 -6 9 6
21 9 10 17 24 17 32 0 21 -52 -43 -73 -89 -9 -21 -17 -42 -17 -47 0 -7 594
-10 1645 -10 l1645 0 0 1645 0 1645 -310 0 c-240 0 -312 -3 -315 -12z m95 -8
c0 -5 -5 -10 -11 -10 -5 0 -7 5 -4 10 3 6 8 10 11 10 2 0 4 -4 4 -10z m-66
-155 c-7 -17 -20 -20 -28 -6 -7 10 3 21 20 21 8 0 11 -6 8 -15z m-90 -80 c6
-16 -3 -19 -28 -9 -22 8 -20 24 3 24 10 0 21 -7 25 -15z m-69 -95 c-3 -5 -11
-10 -16 -10 -6 0 -7 5 -4 10 3 6 11 10 16 10 6 0 7 -4 4 -10z m-70 -10 c3 -5
1 -10 -4 -10 -6 0 -11 5 -11 10 0 6 2 10 4 10 3 0 8 -4 11 -10z m-1405 -10 c0
-5 -5 -10 -11 -10 -5 0 -7 5 -4 10 3 6 8 10 11 10 2 0 4 -4 4 -10z m1342 -165
c3 -14 1 -25 -3 -25 -5 0 -9 11 -9 25 0 14 2 25 4 25 2 0 6 -11 8 -25z m-1457
-365 c3 -6 -6 -15 -22 -21 -29 -11 -53 -3 -61 19 -5 15 74 17 83 2z m1066
-217 c13 -16 12 -17 -3 -4 -17 13 -22 21 -14 21 2 0 10 -8 17 -17z m-431 -53
c0 -5 -2 -10 -4 -10 -3 0 -8 5 -11 10 -3 6 -1 10 4 10 6 0 11 -4 11 -10z m204
-5 c6 -16 -3 -19 -29 -9 -13 5 -14 8 -3 15 19 12 25 11 32 -6z m206 -330 c0
-8 -2 -15 -4 -15 -2 0 -6 7 -10 15 -3 8 -1 15 4 15 6 0 10 -7 10 -15z m-39
-18 c-13 -13 -26 -3 -16 12 3 6 11 8 17 5 6 -4 6 -10 -1 -17z m-141 -102 c0
-8 -4 -15 -10 -15 -5 0 -10 7 -10 15 0 8 5 15 10 15 6 0 10 -7 10 -15z m89
-16 c-16 -10 -23 -4 -14 10 3 6 11 8 17 5 6 -4 5 -9 -3 -15z m-37 -31 c-7 -7
-12 -8 -12 -2 0 6 3 14 7 17 3 4 9 5 12 2 2 -3 -1 -11 -7 -17z m-122 -49 c0
-21 -4 -39 -9 -39 -15 0 -29 55 -22 85 1 2 8 2 16 -1 10 -4 15 -20 15 -45z
m110 10 c0 -5 12 -21 28 -34 15 -13 25 -26 21 -29 -9 -10 -77 29 -77 44 1 8
-3 23 -7 34 -7 16 -6 17 13 7 12 -7 22 -16 22 -22z m237 -46 c2 -6 -6 -17 -18
-23 -17 -10 -23 -9 -30 1 -4 8 -3 19 3 27 13 15 40 12 45 -5z m-60 -70 c-9 -9
-20 -14 -24 -10 -3 4 2 14 13 21 25 19 33 10 11 -11z m-52 -32 c3 -5 1 -12 -5
-16 -5 -3 -10 1 -10 9 0 18 6 21 15 7z m155 -85 c0 -3 -4 -8 -10 -11 -5 -3
-10 -1 -10 4 0 6 5 11 10 11 6 0 10 -2 10 -4z m-80 -95 c0 -16 -14 -20 -27
-10 -10 9 -13 8 -13 -1 0 -8 -3 -10 -6 -7 -11 11 16 36 32 30 8 -3 14 -8 14
-12z m-214 -39 c-9 -8 -26 10 -26 26 1 15 2 15 15 -2 8 -11 13 -21 11 -24z
m325 -5 c-8 -8 -11 -7 -11 4 0 20 13 34 18 19 3 -7 -1 -17 -7 -23z m-91 13 c0
-5 -4 -10 -10 -10 -5 0 -10 5 -10 10 0 6 5 10 10 10 6 0 10 -4 10 -10z m1210
-3 c0 -7 -27 -24 -60 -39 -63 -27 -80 -23 -32 8 35 23 75 44 85 44 4 0 7 -6 7
-13z m-1100 -53 c0 -12 -4 -12 -20 -2 -11 7 -20 16 -20 19 0 4 9 5 20 2 11 -3
20 -12 20 -19z m59 -69 c22 -38 18 -45 -11 -18 -16 14 -21 15 -27 4 -9 -14
-31 -7 -31 9 0 14 33 50 41 45 4 -3 16 -21 28 -40z m111 -14 c0 -10 -3 -11
-14 -2 -7 6 -22 9 -32 5 -15 -4 -14 -1 5 16 25 21 40 14 41 -19z m913 -38
c-44 -31 -70 -50 -110 -80 -43 -33 -121 -75 -160 -87 -32 -10 -29 9 5 40 l27
26 -32 -6 c-55 -9 -41 7 57 66 34 20 71 28 95 18 14 -5 23 -2 30 11 6 10 30
31 55 48 l45 30 3 -26 c3 -18 -3 -32 -15 -40z m-638 17 c3 -5 1 -10 -4 -10 -6
0 -11 5 -11 10 0 6 2 10 4 10 3 0 8 -4 11 -10z m-235 -30 c0 -11 -7 -20 -15
-20 -13 0 -14 4 -5 20 6 11 13 20 15 20 3 0 5 -9 5 -20z m-40 -30 c0 -5 -8
-10 -17 -10 -15 0 -16 2 -3 10 19 12 20 12 20 0z m70 -14 c0 -2 -7 -7 -16 -10
-8 -3 -12 -2 -9 4 6 10 25 14 25 6z m94 -17 c19 -15 31 -18 38 -11 12 12 69
-2 106 -26 24 -15 24 -15 18 6 -14 44 18 18 50 -42 9 -15 17 -43 19 -62 3 -30
1 -33 -15 -24 -10 6 -32 10 -49 10 -24 0 -31 -4 -31 -20 0 -11 5 -20 11 -20 5
0 8 4 4 10 -14 23 62 3 88 -23 26 -27 37 -67 17 -67 -5 0 -10 4 -10 9 0 12
-93 29 -116 20 -10 -4 -17 -8 -14 -9 18 -5 49 -11 75 -14 36 -3 75 -23 75 -36
0 -6 -10 -6 -26 0 -32 12 -44 13 -44 1 0 -5 9 -13 21 -16 l21 -7 -22 -15 c-20
-14 -20 -16 -3 -28 9 -7 23 -11 30 -8 7 3 13 -2 13 -11 0 -10 14 -23 33 -31
46 -19 87 -76 125 -174 19 -47 40 -98 48 -113 8 -15 32 -79 53 -142 l39 -116
-325 0 c-323 0 -325 0 -320 20 3 12 -1 33 -9 48 -18 34 -18 78 0 85 9 4 12 15
8 32 -3 16 -9 24 -18 21 -14 -5 -54 51 -54 75 1 8 8 1 16 -14 20 -36 27 -30
13 11 -7 22 -7 36 0 51 23 43 8 112 -26 122 -20 6 27 57 59 64 21 5 27 2 33
-14 3 -12 15 -21 25 -21 14 0 19 10 22 43 3 23 8 50 13 61 7 17 6 17 -16 6
-13 -7 -34 -22 -46 -33 -13 -11 -26 -17 -30 -14 -3 4 -12 2 -19 -4 -9 -8 -11
-5 -7 11 4 15 11 19 24 15 14 -5 17 -2 13 10 -5 11 0 18 15 22 11 3 21 9 21
14 0 5 7 9 15 9 8 0 15 8 15 17 0 12 3 14 11 6 16 -16 49 -4 49 18 0 11 5 19
10 19 6 0 10 -4 10 -9 0 -14 38 -20 49 -7 17 20 -4 37 -43 34 -23 -1 -43 -9
-51 -20 -7 -11 -19 -16 -29 -12 -25 10 -19 24 14 31 25 5 29 9 24 27 -9 30
-11 30 -29 12 -9 -9 -19 -16 -21 -16 -12 0 10 46 27 58 28 19 10 57 -27 57
-20 0 -32 7 -39 23 -5 12 -13 22 -18 22 -4 0 -5 5 -2 10 9 14 55 12 56 -2 1
-7 5 3 9 22 7 27 5 39 -7 53 -22 24 -1 21 31 -4z m-344 -16 c0 -17 -15 -16
-30 1 -9 12 -8 15 9 13 12 -1 21 -7 21 -14z m207 11 c-3 -3 -12 -4 -19 -1 -8
3 -5 6 6 6 11 1 17 -2 13 -5z m43 -138 c0 -3 -4 -8 -10 -11 -5 -3 -10 -1 -10
4 0 6 5 11 10 11 6 0 10 -2 10 -4z m400 -48 c0 -23 -6 -23 -31 1 -20 18 -20
20 -2 29 20 12 33 0 33 -30z m67 -1 c-3 -9 2 -13 15 -13 12 1 23 -5 26 -13 3
-10 0 -12 -11 -8 -9 3 -17 1 -19 -4 -2 -5 -12 -4 -23 5 -16 12 -17 16 -6 30
16 19 25 21 18 3z m-441 -18 c3 -6 2 -15 -3 -20 -5 -5 -14 0 -21 11 -10 17
-10 20 2 20 8 0 18 -5 22 -11z m-189 -147 c8 -34 -4 -38 -20 -5 -8 15 -25 37
-37 48 -45 40 -41 57 4 19 26 -21 49 -49 53 -62z m607 73 c3 -8 1 -15 -4 -15
-6 0 -10 -7 -10 -15 0 -8 -5 -15 -11 -15 -6 0 -8 7 -5 16 3 9 6 22 6 30 0 19
16 18 24 -1z m-447 -1 c-3 -3 -12 -4 -19 -1 -8 3 -5 6 6 6 11 1 17 -2 13 -5z
m33 -35 c0 -5 -4 -9 -10 -9 -5 0 -10 7 -10 16 0 8 5 12 10 9 6 -3 10 -10 10
-16z m440 -82 c0 -21 0 -21 -16 1 -9 13 -22 21 -30 18 -8 -3 -14 -1 -14 4 0
13 33 18 48 7 6 -5 12 -19 12 -30z m59 -117 c0 -10 -3 -8 -9 5 -12 27 -12 43
0 25 5 -8 9 -22 9 -30z m-1432 -242 c-3 -7 -5 -2 -5 12 0 14 2 19 5 13 2 -7 2
-19 0 -25z m5 -70 c-3 -21 -7 -26 -12 -17 -10 17 0 75 10 60 3 -6 4 -25 2 -43z
m-7 -98 c2 -19 -2 -30 -10 -30 -7 0 -11 10 -10 22 1 13 3 29 4 37 2 24 14 3
16 -29z"/>
<path d="M2530 930 c0 -5 5 -10 10 -10 6 0 10 5 10 10 0 6 -4 10 -10 10 -5 0
-10 -4 -10 -10z"/>
<path d="M2670 900 c0 -5 5 -10 11 -10 5 0 7 5 4 10 -3 6 -8 10 -11 10 -2 0
-4 -4 -4 -10z"/>
<path d="M2547 768 c4 -7 8 -17 8 -22 0 -5 6 -11 13 -13 15 -6 16 19 0 35 -16
16 -31 15 -21 0z"/>
<path d="M2630 620 c0 -24 6 -25 26 -6 19 20 18 26 -6 26 -13 0 -20 -7 -20
-20z"/>
<path d="M2530 620 c-9 -6 -10 -10 -3 -10 6 0 15 5 18 10 8 12 4 12 -15 0z"/>
<path d="M2570 605 c-7 -9 -10 -18 -7 -22 8 -7 37 15 37 28 0 14 -16 11 -30
-6z"/>
<path d="M2385 489 c-11 -17 1 -21 15 -4 8 9 8 15 2 15 -6 0 -14 -5 -17 -11z"/>
<path d="M2440 310 c0 -11 4 -20 9 -20 5 0 7 9 4 20 -3 11 -7 20 -9 20 -2 0
-4 -9 -4 -20z"/>
<path d="M2446 232 c-3 -5 1 -25 8 -46 12 -33 14 -35 19 -16 3 12 2 33 -3 46
-10 25 -16 29 -24 16z"/>
<path d="M915 3140 c3 -5 10 -10 16 -10 5 0 9 5 9 10 0 6 -7 10 -16 10 -8 0
-12 -4 -9 -10z"/>
<path d="M2595 3140 c-3 -5 3 -10 15 -10 12 0 18 5 15 10 -3 6 -10 10 -15 10
-5 0 -12 -4 -15 -10z"/>
<path d="M2470 3000 c0 -5 4 -10 9 -10 6 0 13 5 16 10 3 6 -1 10 -9 10 -9 0
-16 -4 -16 -10z"/>
<path d="M1126 2966 c3 -9 11 -16 16 -16 13 0 5 23 -10 28 -7 2 -10 -2 -6 -12z"/>
<path d="M1264 2929 c-8 -14 18 -31 30 -19 9 9 0 30 -14 30 -5 0 -12 -5 -16
-11z"/>
<path d="M475 2900 c3 -5 8 -10 11 -10 2 0 4 5 4 10 0 6 -5 10 -11 10 -5 0 -7
-4 -4 -10z"/>
<path d="M591 2859 c-14 -24 0 -49 28 -49 13 0 13 2 2 9 -8 5 -11 16 -7 29 9
28 -7 35 -23 11z"/>
<path d="M1356 2793 c-6 -14 -5 -15 5 -6 7 7 10 15 7 18 -3 3 -9 -2 -12 -12z"/>
<path d="M2330 2800 c0 -5 5 -10 10 -10 6 0 10 5 10 10 0 6 -4 10 -10 10 -5 0
-10 -4 -10 -10z"/>
<path d="M1070 2774 c0 -12 7 -27 15 -34 20 -17 21 9 0 36 -14 19 -14 19 -15
-2z"/>
<path d="M676 2745 c-11 -8 -15 -15 -10 -15 6 0 19 7 30 15 10 8 15 14 9 14
-5 0 -19 -6 -29 -14z"/>
<path d="M2270 2740 c0 -5 5 -10 11 -10 5 0 7 5 4 10 -3 6 -8 10 -11 10 -2 0
-4 -4 -4 -10z"/>
<path d="M1450 2710 c0 -5 5 -10 10 -10 6 0 10 5 10 10 0 6 -4 10 -10 10 -5 0
-10 -4 -10 -10z"/>
<path d="M2200 2710 c0 -5 5 -10 11 -10 5 0 7 5 4 10 -3 6 -8 10 -11 10 -2 0
-4 -4 -4 -10z"/>
<path d="M910 2681 c0 -5 6 -16 13 -23 8 -7 19 -23 26 -36 10 -18 51 -33 51
-18 0 6 -80 86 -85 86 -3 0 -5 -4 -5 -9z"/>
<path d="M1550 2675 c0 -16 27 -32 37 -21 7 7 -16 36 -28 36 -5 0 -9 -7 -9
-15z"/>
<path d="M2166 2655 c-3 -9 0 -15 9 -15 8 0 15 7 15 15 0 8 -4 15 -9 15 -5 0
-11 -7 -15 -15z"/>
<path d="M1530 2629 c0 -28 14 -50 101 -156 57 -70 73 -93 66 -93 -9 0 -74 69
-112 118 -38 50 -63 68 -51 36 3 -8 2 -12 -4 -9 -22 14 -8 -19 26 -61 20 -24
32 -44 26 -44 -6 0 -9 -7 -6 -15 5 -11 -2 -15 -27 -15 -26 0 -30 -3 -21 -12 7
-7 12 -20 12 -29 0 -28 28 -45 51 -31 16 10 22 9 38 -7 11 -11 29 -25 41 -31
21 -11 21 -11 5 14 -10 14 -14 26 -10 26 5 0 0 10 -10 23 -17 20 11 -8 111
-114 51 -55 108 -99 125 -99 7 0 -3 17 -22 38 -37 39 -124 144 -149 177 -17
24 24 -10 78 -65 34 -34 34 -34 16 -5 -9 17 -50 71 -89 120 -40 50 -88 115
-108 145 -21 30 -48 69 -62 85 l-25 30 0 -26z m58 -269 c10 -16 10 -20 -2 -20
-7 0 -16 9 -19 20 -3 11 -2 20 2 20 3 0 12 -9 19 -20z"/>
<path d="M1500 2453 c0 -5 14 -19 30 -31 29 -22 41 -14 22 14 -9 15 -52 28
-52 17z"/>
<path d="M1203 2413 c-7 -2 -13 -14 -13 -24 0 -23 15 -17 30 12 11 19 6 22
-17 12z"/>
<path d="M1267 2396 c-11 -27 -9 -29 17 -22 14 3 28 2 31 -4 3 -5 11 -10 17
-10 7 0 6 6 -2 15 -7 8 -21 15 -30 15 -10 0 -20 5 -22 12 -3 7 -7 5 -11 -6z"/>
<path d="M1335 2400 c4 -6 11 -8 16 -5 14 9 11 15 -7 15 -8 0 -12 -5 -9 -10z"/>
<path d="M1155 2380 c-3 -5 -1 -10 4 -10 6 0 11 5 11 10 0 6 -2 10 -4 10 -3 0
-8 -4 -11 -10z"/>
<path d="M1252 2348 c6 -18 28 -21 28 -4 0 9 -7 16 -16 16 -9 0 -14 -5 -12
-12z"/>
<path d="M1196 2334 c-8 -22 1 -31 16 -16 9 9 9 15 1 23 -7 7 -12 5 -17 -7z"/>
<path d="M1295 2330 c3 -5 10 -10 16 -10 5 0 9 5 9 10 0 6 -7 10 -16 10 -8 0
-12 -4 -9 -10z"/>
<path d="M1348 2283 c7 -3 16 -2 19 1 4 3 -2 6 -13 5 -11 0 -14 -3 -6 -6z"/>
<path d="M1115 2240 c-3 -5 -1 -10 4 -10 6 0 11 5 11 10 0 6 -2 10 -4 10 -3 0
-8 -4 -11 -10z"/>
<path d="M1140 2231 c-13 -26 -13 -51 1 -51 6 0 24 9 40 21 24 17 27 24 18 35
-16 20 -47 17 -59 -5z"/>
<path d="M1248 2243 c-10 -3 -18 -8 -18 -13 0 -13 26 -19 41 -9 18 11 1 27
-23 22z"/>
<path d="M912 2209 c-32 -32 -43 -69 -19 -69 22 -1 70 -51 73 -77 1 -14 -3
-34 -9 -44 -16 -25 0 -37 18 -13 8 10 29 47 46 81 31 61 31 61 13 87 -24 32
-43 40 -62 24 -13 -11 -15 -9 -10 15 7 36 -10 35 -50 -4z m98 -87 c0 -5 -7
-17 -15 -28 -15 -19 -20 -8 -9 20 6 17 24 22 24 8z"/>
<path d="M1330 2220 c0 -5 5 -10 11 -10 5 0 7 5 4 10 -3 6 -8 10 -11 10 -2 0
-4 -4 -4 -10z"/>
<path d="M1062 2150 c-21 -62 -17 -83 11 -52 13 15 47 93 47 108 0 2 -9 4 -19
4 -14 0 -24 -15 -39 -60z"/>
<path d="M1630 2170 c-28 -22 -24 -25 14 -10 14 5 26 14 26 20 0 15 -12 12
-40 -10z"/>
<path d="M1475 2150 c-17 -19 -17 -22 -3 -36 21 -22 38 -10 38 27 0 34 -10 37
-35 9z"/>
<path d="M1780 2045 c-7 -8 -18 -15 -24 -15 -14 0 -59 -40 -53 -46 7 -7 53 13
71 31 23 23 57 8 82 -34 10 -17 22 -31 27 -31 4 0 -11 25 -35 55 -23 30 -46
55 -49 55 -4 0 -12 -7 -19 -15z"/>
<path d="M1850 2026 c0 -2 8 -10 18 -17 15 -13 16 -12 3 4 -13 16 -21 21 -21
13z"/>
<path d="M929 1963 c-13 -16 -12 -17 4 -4 9 7 17 15 17 17 0 8 -8 3 -21 -13z"/>
<path d="M880 1890 c-6 -11 -7 -20 -2 -20 6 0 12 9 15 20 3 11 3 20 1 20 -2 0
-8 -9 -14 -20z"/>
<path d="M2095 1860 c3 -5 11 -10 16 -10 6 0 7 5 4 10 -3 6 -11 10 -16 10 -6
0 -7 -4 -4 -10z"/>
<path d="M2060 1716 c0 -8 9 -16 19 -19 13 -3 18 -1 14 8 -7 19 -33 27 -33 11z"/>
<path d="M2230 1697 c0 -13 53 -92 66 -100 8 -4 14 -15 14 -23 0 -9 14 -29 30
-46 17 -16 30 -33 30 -37 0 -4 11 -13 25 -19 14 -6 25 -9 25 -6 0 15 -37 57
-56 64 -12 5 -30 25 -40 45 -9 20 -25 40 -35 45 -10 6 -16 16 -13 23 2 7 -7
24 -21 37 -14 13 -25 20 -25 17z"/>
<path d="M747 1644 c-11 -14 -17 -28 -14 -30 7 -8 37 26 37 42 0 19 -2 18 -23
-12z"/>
<path d="M2149 1612 c12 -23 46 -53 57 -51 21 3 26 -2 15 -15 -15 -18 2 -49
36 -67 14 -7 21 -19 18 -26 -2 -8 -1 -12 3 -9 5 3 16 -4 26 -15 10 -12 20 -18
23 -15 4 3 -3 16 -15 29 -29 30 -28 46 0 21 l22 -19 -20 27 c-10 15 -25 25
-31 23 -12 -4 -18 8 -14 29 3 12 -50 66 -59 61 -4 -3 -7 3 -6 13 1 11 -5 16
-16 14 -9 -1 -19 2 -23 8 -11 18 -26 11 -16 -8z"/>
<path d="M661 1529 c-28 -53 -21 -61 10 -12 31 50 32 53 21 53 -6 0 -20 -19
-31 -41z"/>
<path d="M440 1480 c-9 -6 -10 -10 -3 -10 6 0 15 5 18 10 8 12 4 12 -15 0z"/>
<path d="M320 1450 c0 -5 4 -10 9 -10 6 0 13 5 16 10 3 6 -1 10 -9 10 -9 0
-16 -4 -16 -10z"/>
<path d="M400 1450 c0 -5 -7 -10 -15 -10 -8 0 -15 -9 -15 -19 0 -11 -4 -23
-10 -26 -5 -3 -10 1 -10 9 0 16 -12 21 -23 9 -4 -3 -2 -12 5 -20 6 -7 7 -17 3
-21 -4 -4 -10 -1 -12 6 -8 21 -43 14 -43 -9 0 -18 4 -20 26 -15 20 5 25 3 22
-9 -2 -9 -6 -16 -10 -16 -5 1 -19 1 -32 1 -14 0 -31 7 -40 15 -8 9 -19 15 -23
14 -4 -1 -15 11 -23 27 -15 27 -40 44 -40 27 0 -4 -10 -8 -22 -9 -13 -1 -38
-5 -57 -9 -25 -6 -32 -5 -27 3 4 7 16 12 27 12 10 0 19 4 19 9 0 15 -18 23
-25 11 -3 -5 -15 -10 -25 -10 -10 0 -26 -7 -34 -16 -14 -14 -16 -73 -16 -500
0 -321 3 -483 10 -479 6 3 10 1 10 -4 0 -6 -4 -11 -10 -11 -5 0 -10 -17 -10
-37 l0 -38 20 33 c11 18 20 38 20 45 0 7 9 20 20 30 12 10 18 23 14 29 -4 6
-1 16 7 22 8 6 20 21 26 34 7 12 19 32 25 44 7 13 18 30 25 38 23 30 83 152
78 160 -2 4 7 20 20 36 14 16 30 35 36 42 19 23 79 145 79 160 0 23 -35 -28
-49 -70 -7 -20 -19 -42 -27 -48 -7 -7 -14 -18 -14 -25 0 -8 -3 -15 -8 -17 -9
-4 -61 -88 -93 -151 -13 -27 -37 -63 -52 -80 l-28 -32 31 60 c32 60 112 201
206 362 28 48 56 89 62 91 7 2 10 -3 6 -12 -8 -20 10 -21 26 -1 9 11 10 19 3
26 -13 13 2 58 37 114 14 22 25 42 25 45 1 3 9 20 19 38 9 19 15 40 12 48 -3
9 1 14 13 14 10 0 21 8 25 18 3 9 10 26 15 37 7 17 5 21 -13 22 -11 0 -15 -1
-8 -4 23 -9 12 -23 -13 -17 -19 5 -30 1 -43 -14 -15 -17 -26 -19 -65 -15 -49
6 -61 17 -27 26 13 3 18 10 14 21 -7 18 -24 22 -24 6z m140 -55 c0 -8 -4 -15
-10 -15 -5 0 -10 7 -10 15 0 8 5 15 10 15 6 0 10 -7 10 -15z m-403 -31 c-3 -3
-12 -4 -19 -1 -8 3 -5 6 6 6 11 1 17 -2 13 -5z m383 -25 c0 -6 -4 -7 -10 -4
-5 3 -10 11 -10 16 0 6 5 7 10 4 6 -3 10 -11 10 -16z m-440 -799 c0 -5 -5 -10
-11 -10 -5 0 -7 5 -4 10 3 6 8 10 11 10 2 0 4 -4 4 -10z m-40 -80 c-6 -12 -14
-19 -17 -17 -2 3 1 15 7 27 6 12 14 19 17 17 2 -3 -1 -15 -7 -27z"/>
<path d="M570 1379 c0 -5 5 -7 10 -4 6 3 10 8 10 11 0 2 -4 4 -10 4 -5 0 -10
-5 -10 -11z"/>
<path d="M2950 1345 c-7 -8 -17 -15 -22 -15 -12 0 -138 -93 -138 -102 0 -10
19 -21 60 -35 48 -17 70 -16 92 4 16 15 21 15 28 3 7 -12 13 -10 34 9 40 38
41 57 7 97 -17 19 -31 39 -31 44 0 15 -16 12 -30 -5z"/>
<path d="M705 1340 c-3 -5 -2 -10 4 -10 5 0 13 5 16 10 3 6 2 10 -4 10 -5 0
-13 -4 -16 -10z"/>
<path d="M2838 1327 c-21 -12 -38 -26 -38 -30 0 -10 57 23 72 41 14 16 9 15
-34 -11z"/>
<path d="M1441 1294 c-5 -19 -7 -42 -4 -50 3 -8 0 -35 -6 -60 -10 -38 -9 -47
4 -60 8 -9 15 -11 15 -5 0 6 -1 12 -2 14 -2 1 5 13 14 26 16 23 16 25 0 37
-14 12 -15 15 -3 23 8 5 14 23 14 40 0 17 4 31 9 31 15 0 8 28 -8 34 -23 9
-22 9 -33 -30z"/>
<path d="M1521 1274 c0 -11 3 -14 6 -6 3 7 2 16 -1 19 -3 4 -6 -2 -5 -13z"/>
<path d="M2530 1283 c1 -11 26 -43 34 -43 3 0 6 11 6 25 0 18 -5 25 -20 25
-11 0 -20 -3 -20 -7z"/>
<path d="M1519 1218 c-1 -21 -2 -43 -3 -50 -1 -6 4 -13 11 -15 19 -7 24 32 9
68 l-15 34 -2 -37z"/>
<path d="M487 1213 c-11 -13 -17 -26 -14 -29 2 -3 12 7 21 22 23 33 17 39 -7
7z"/>
<path d="M950 1220 c0 -5 5 -10 11 -10 5 0 7 5 4 10 -3 6 -8 10 -11 10 -2 0
-4 -4 -4 -10z"/>
<path d="M528 1213 c6 -2 18 -2 25 0 6 3 1 5 -13 5 -14 0 -19 -2 -12 -5z"/>
<path d="M2655 1200 c-3 -5 -2 -10 4 -10 5 0 13 5 16 10 3 6 2 10 -4 10 -5 0
-13 -4 -16 -10z"/>
<path d="M2724 1189 c-19 -22 -19 -22 1 -11 11 6 27 16 35 22 13 8 13 10 -1
10 -9 0 -24 -10 -35 -21z"/>
<path d="M940 1180 c0 -5 5 -10 11 -10 5 0 7 5 4 10 -3 6 -8 10 -11 10 -2 0
-4 -4 -4 -10z"/>
<path d="M1106 1153 c-13 -13 -6 -42 9 -37 16 7 20 30 6 38 -4 3 -11 3 -15 -1z"/>
<path d="M483 1134 c-7 -7 -13 -18 -13 -24 0 -15 20 -12 26 5 9 22 0 35 -13
19z"/>
<path d="M1118 1093 c-24 -6 -23 -23 2 -23 11 0 20 7 20 15 0 8 -1 14 -2 14
-2 -1 -11 -3 -20 -6z"/>
<path d="M460 1065 c0 -9 5 -15 11 -13 6 2 11 8 11 13 0 5 -5 11 -11 13 -6 2
-11 -4 -11 -13z"/>
<path d="M423 1038 c-61 -95 -70 -134 -18 -83 14 15 24 29 21 32 -3 3 6 15 19
28 24 22 24 35 -1 35 -7 0 -16 -6 -21 -12z"/>
<path d="M1259 1023 c-1 -10 -2 -25 -3 -33 -3 -33 14 -51 47 -48 24 2 33 8 35
26 2 12 7 22 12 22 5 0 7 7 4 15 -9 22 -21 18 -31 -9 -7 -22 -10 -23 -27 -11
-15 11 -16 17 -8 28 13 15 6 27 -15 27 -7 0 -14 -8 -14 -17z"/>
<path d="M2005 1010 c-8 -14 3 -30 21 -30 8 0 14 9 14 20 0 21 -24 28 -35 10z"/>
<path d="M1435 980 c-3 -5 -1 -10 4 -10 6 0 11 5 11 10 0 6 -2 10 -4 10 -3 0
-8 -4 -11 -10z"/>
<path d="M1404 938 c-10 -16 -16 -113 -6 -99 5 7 15 10 21 7 6 -4 11 -1 11 8
0 8 7 19 16 24 10 5 18 23 20 39 3 28 1 30 -27 29 -17 -1 -33 -4 -35 -8z"/>
<path d="M2040 900 c6 -11 13 -20 16 -20 2 0 0 9 -6 20 -6 11 -13 20 -16 20
-2 0 0 -9 6 -20z"/>
<path d="M330 850 c0 -5 7 -10 15 -10 8 0 15 5 15 10 0 6 -7 10 -15 10 -8 0
-15 -4 -15 -10z"/>
<path d="M430 839 c0 -5 5 -7 10 -4 6 3 10 8 10 11 0 2 -4 4 -10 4 -5 0 -10
-5 -10 -11z"/>
<path d="M1450 840 c0 -5 5 -10 10 -10 6 0 10 5 10 10 0 6 -4 10 -10 10 -5 0
-10 -4 -10 -10z"/>
<path d="M288 796 c-16 -24 -28 -47 -28 -53 0 -5 -11 -24 -25 -43 -28 -38 -32
-55 -11 -47 8 3 16 1 18 -5 2 -6 9 -8 16 -4 9 5 9 12 -1 27 -10 17 -9 23 10
38 12 10 20 21 17 24 -3 3 4 15 15 26 11 11 18 27 15 36 -4 10 0 15 11 15 9 0
15 5 13 12 -8 24 -24 17 -50 -26z"/>
<path d="M1453 710 c0 -36 2 -50 4 -32 2 17 2 47 0 65 -2 17 -4 3 -4 -33z"/>
<path d="M1492 710 c0 -19 2 -27 5 -17 2 9 2 25 0 35 -3 9 -5 1 -5 -18z"/>
<path d="M342 673 c-39 -55 -52 -89 -39 -102 19 -19 27 -12 27 24 0 19 3 35 8
35 9 0 36 59 29 66 -3 3 -14 -7 -25 -23z"/>
<path d="M1370 650 c0 -5 5 -10 10 -10 6 0 10 5 10 10 0 6 -4 10 -10 10 -5 0
-10 -4 -10 -10z"/>
<path d="M186 615 c-9 -13 -16 -28 -16 -33 0 -5 -13 -26 -30 -48 -35 -47 -35
-48 -9 -90 22 -37 44 -36 53 2 4 13 11 24 16 24 6 0 10 10 10 23 0 13 5 28 12
35 9 9 9 15 0 24 -8 8 -9 15 -1 25 9 9 8 13 0 13 -23 0 -1 17 29 23 16 4 30
11 30 17 0 8 -6 8 -20 0 -14 -7 -26 -8 -39 -1 -15 9 -22 6 -35 -14z m-26 -129
c0 -3 -4 -8 -10 -11 -5 -3 -10 -1 -10 4 0 6 5 11 10 11 6 0 10 -2 10 -4z"/>
<path d="M1477 530 c-3 -25 -1 -50 4 -56 6 -8 6 -13 0 -16 -5 -1 -12 -28 -15
-60 -5 -44 -3 -60 9 -72 9 -9 21 -16 26 -16 14 0 11 108 -3 112 -9 3 -8 10 5
23 12 11 16 26 13 39 -3 12 -6 25 -6 29 0 5 -5 5 -12 1 -6 -4 -8 -3 -5 4 4 5
3 20 -1 33 -8 20 -10 17 -15 -21z"/>
<path d="M300 535 c0 -8 7 -15 15 -15 8 0 15 4 15 9 0 5 -7 11 -15 15 -9 3
-15 0 -15 -9z"/>
<path d="M1432 523 c-6 -11 -7 -25 -2 -33 6 -10 10 -7 16 13 8 34 -1 46 -14
20z"/>
<path d="M232 460 c-7 -11 -8 -20 -2 -20 5 0 14 9 20 20 6 11 7 20 3 20 -5 0
-14 -9 -21 -20z"/>
<path d="M962 450 c7 -10 14 -18 15 -16 6 6 -9 36 -18 36 -5 0 -4 -9 3 -20z"/>
<path d="M95 442 c-10 -7 -15 -16 -57 -91 -11 -20 -24 -40 -29 -45 -5 -6 -9
-24 -9 -42 0 -27 4 -31 25 -31 31 0 53 22 30 31 -22 8 -18 26 5 26 18 0 19 3
10 20 -10 18 -8 20 20 20 28 0 30 2 20 21 -7 11 -9 27 -6 34 3 8 1 17 -4 20
-7 4 -6 13 0 26 12 21 11 23 -5 11z"/>
<path d="M405 430 c-3 -5 1 -10 9 -10 9 0 16 5 16 10 0 6 -4 10 -9 10 -6 0
-13 -4 -16 -10z"/>
<path d="M1285 431 c-3 -5 -1 -12 5 -16 5 -3 10 1 10 9 0 18 -6 21 -15 7z"/>
<path d="M211 423 c0 -7 -24 -51 -52 -98 -28 -48 -48 -89 -45 -92 10 -11 61
40 63 63 1 13 12 41 23 63 12 21 20 47 17 57 -2 10 -5 14 -6 7z"/>
<path d="M1145 395 c-3 -17 -10 -44 -15 -61 -6 -17 -10 -41 -9 -55 1 -21 2
-20 17 11 8 19 15 39 14 43 -2 5 3 5 9 2 8 -5 8 -10 0 -18 -20 -20 -13 -47 12
-47 13 0 27 -4 33 -9 12 -13 48 14 39 29 -4 7 -19 10 -36 6 -28 -5 -29 -4 -31
32 -2 51 -2 54 -15 77 -11 18 -12 18 -18 -10z"/>
<path d="M1407 378 c-40 -54 -43 -62 -18 -49 24 13 23 15 26 -24 4 -42 4 -42
16 -22 10 18 15 114 6 123 -3 3 -16 -10 -30 -28z"/>
<path d="M1275 380 c3 -5 8 -10 11 -10 2 0 4 5 4 10 0 6 -5 10 -11 10 -5 0 -7
-4 -4 -10z"/>
<path d="M400 359 c0 -5 5 -7 10 -4 6 3 10 8 10 11 0 2 -4 4 -10 4 -5 0 -10
-5 -10 -11z"/>
<path d="M356 335 c-23 -34 -12 -45 15 -16 14 15 18 26 12 32 -7 7 -16 1 -27
-16z"/>
<path d="M1267 333 c-12 -11 -8 -23 8 -23 8 0 15 7 15 15 0 16 -12 20 -23 8z"/>
<path d="M1208 318 c5 -5 16 -8 23 -6 8 3 3 7 -10 11 -17 4 -21 3 -13 -5z"/>
<path d="M1390 261 c0 -5 7 -11 15 -15 8 -3 15 -1 15 3 0 5 -7 11 -15 15 -8 3
-15 1 -15 -3z"/>
<path d="M170 230 c0 -5 5 -10 10 -10 6 0 10 5 10 10 0 6 -4 10 -10 10 -5 0
-10 -4 -10 -10z"/>
<path d="M1220 230 c0 -5 5 -10 11 -10 5 0 7 5 4 10 -3 6 -8 10 -11 10 -2 0
-4 -4 -4 -10z"/>
<path d="M0 210 c0 -5 5 -10 11 -10 5 0 7 5 4 10 -3 6 -8 10 -11 10 -2 0 -4
-4 -4 -10z"/>
<path d="M1360 210 c0 -5 7 -13 16 -18 18 -10 11 -32 -11 -32 -7 0 -15 -5 -17
-12 -2 -6 -10 -8 -17 -4 -7 5 -10 14 -7 22 3 8 1 14 -3 14 -9 0 -21 -24 -21
-41 0 -6 5 -7 10 -4 17 11 32 -5 19 -21 -9 -11 -7 -14 10 -14 11 0 21 5 21 10
0 6 5 10 11 10 8 0 8 -5 -1 -15 -10 -12 -8 -16 11 -24 13 -5 28 -6 33 -4 10 7
-3 114 -16 131 -12 14 -38 16 -38 2z"/>
<path d="M1110 195 c0 -9 6 -12 15 -9 8 4 12 10 9 15 -8 14 -24 10 -24 -6z"/>
<path d="M97 193 c-14 -13 -6 -20 19 -17 38 4 49 19 16 22 -16 1 -32 -1 -35
-5z"/>
<path d="M9 178 c-7 -24 -7 -48 0 -48 5 0 11 11 13 25 3 14 1 25 -3 25 -5 0
-9 -1 -10 -2z"/>
<path d="M1100 151 c0 -5 7 -12 16 -15 14 -5 15 -4 4 9 -14 17 -20 19 -20 6z"/>
<path d="M102 99 c2 -6 8 -10 13 -10 5 0 11 4 13 10 2 6 -4 11 -13 11 -9 0
-15 -5 -13 -11z"/>
<path d="M1110 84 c0 -8 5 -12 10 -9 6 3 10 10 10 16 0 5 -4 9 -10 9 -5 0 -10
-7 -10 -16z"/>
<path d="M525 71 c-4 -14 -15 -21 -31 -21 -15 0 -24 -6 -24 -15 0 -22 25 -18
57 9 21 19 25 27 16 36 -8 9 -13 7 -18 -9z"/>
<path d="M1346 73 c-3 -3 -1 -12 5 -20 9 -9 8 -13 0 -13 -6 0 -11 -4 -11 -8 0
-5 10 -8 23 -6 12 1 25 3 30 3 4 1 7 5 7 10 0 12 -46 41 -54 34z"/>
</g>
</svg>
