<?xml version="1.0" standalone="no"?>
<!DOCTYPE svg PUBLIC "-//W3C//DTD SVG 20010904//EN"
 "http://www.w3.org/TR/2001/REC-SVG-20010904/DTD/svg10.dtd">
<svg version="1.0" xmlns="http://www.w3.org/2000/svg"
 width="408.000000pt" height="408.000000pt" viewBox="0 0 408.000000 408.000000"
 preserveAspectRatio="xMidYMid meet">

<g transform="translate(0.000000,408.000000) scale(0.100000,-0.100000)"
fill="#333333" stroke="none">
<path d="M0 2949 l0 -1132 68 6 c110 10 642 47 862 60 l205 12 -3 43 c-3 33 0
42 12 42 9 0 16 7 16 15 0 8 4 15 9 15 5 0 14 12 19 28 9 22 11 23 12 7 1 -11
1 -37 0 -58 -1 -29 2 -37 15 -37 14 0 15 3 6 14 -9 11 -9 19 0 34 11 18 13 18
39 -10 15 -15 35 -28 44 -28 9 0 16 -8 16 -19 0 -10 7 -22 16 -25 8 -3 12 -2
9 4 -11 18 5 11 32 -14 15 -14 30 -23 35 -20 4 3 8 -1 8 -8 0 -7 5 -20 10 -28
9 -13 11 -13 20 0 7 11 10 12 10 2 0 -9 7 -11 23 -7 19 6 20 6 6 -6 -12 -10
-18 -38 -22 -95 -6 -84 -20 -133 -40 -146 -17 -11 -2 -10 148 7 72 9 168 20
215 25 47 5 117 14 155 19 203 28 306 41 358 44 55 3 60 1 80 -28 12 -16 34
-42 50 -58 27 -25 34 -27 79 -21 l49 7 -48 16 c-69 23 -118 66 -167 146 -56
90 -85 182 -110 345 -2 17 -4 13 -5 -12 -1 -26 -7 -41 -21 -48 -15 -8 -20 -8
-20 1 0 8 -4 8 -15 -1 -8 -7 -13 -15 -11 -19 3 -4 -4 -18 -15 -31 -10 -14 -19
-19 -19 -12 0 24 -18 11 -33 -25 -9 -21 -16 -30 -16 -20 -1 21 -21 23 -21 1 0
-10 -7 -14 -22 -12 -19 2 -24 11 -29 53 -5 43 -6 45 -7 13 -2 -47 -11 -70 -25
-61 -6 3 -7 1 -3 -6 4 -6 2 -18 -4 -26 -14 -17 -35 -21 -25 -5 11 17 14 70 4
70 -5 0 -9 -7 -9 -15 0 -8 -5 -25 -11 -38 -13 -30 -46 -25 -59 7 -9 24 -3 73
10 81 10 6 1 45 -10 45 -5 0 -10 -10 -12 -22 -2 -15 -11 -24 -25 -26 -17 -3
-21 0 -17 12 3 9 2 16 -4 16 -6 0 -9 -8 -8 -17 4 -23 -26 -46 -37 -30 -5 9
-11 8 -20 -4 -18 -23 -73 -30 -73 -8 0 11 7 15 21 12 11 -2 8 2 -7 8 -16 6
-28 18 -28 27 0 11 -3 13 -8 6 -4 -6 -15 -14 -26 -17 -12 -5 -17 -14 -13 -26
3 -12 -1 -22 -9 -25 -23 -9 -16 -23 11 -23 19 0 27 6 34 31 5 17 10 25 10 17
1 -20 -21 -81 -30 -81 -4 0 -10 8 -12 18 -3 9 -5 2 -6 -15 0 -18 -6 -33 -12
-33 -6 0 -8 9 -4 20 8 24 2 25 -20 4 -22 -22 -33 -9 -12 14 22 24 22 42 0 42
-12 0 -14 -3 -6 -11 8 -8 2 -19 -20 -39 -18 -16 -33 -27 -35 -26 -6 7 11 35
18 31 10 -6 25 34 16 42 -3 4 -6 1 -6 -5 0 -7 -6 -12 -12 -12 -7 0 0 12 16 26
23 22 30 24 38 13 8 -11 9 -10 4 4 -3 10 -6 26 -6 35 -1 14 -3 13 -12 -3 -6
-11 -12 -21 -13 -23 -2 -2 -15 9 -31 23 -26 24 -29 25 -35 8 -4 -10 -9 13 -14
55 -7 71 -20 129 -46 202 -6 19 -18 55 -27 79 -19 56 -67 111 -97 111 -13 0
-26 3 -28 8 -5 7 233 6 498 -3 77 -2 150 -4 163 -5 12 0 22 -4 22 -9 0 -6 10
-13 23 -16 23 -8 77 -60 77 -76 0 -5 7 -9 15 -9 9 0 28 -11 43 -25 15 -14 33
-23 40 -20 8 3 16 -3 19 -15 3 -11 9 -18 13 -15 11 7 40 -40 41 -67 1 -19 2
-20 6 -4 4 15 7 16 15 5 7 -10 8 3 4 39 -4 41 -2 52 9 52 8 0 15 8 16 18 0 15
1 14 8 -3 7 -17 9 -16 15 10 6 22 9 26 17 14 5 -7 9 -18 9 -24 0 -5 -4 -4 -9
4 -6 9 -10 0 -13 -28 -4 -45 8 -56 18 -16 3 13 9 24 13 23 3 0 8 0 11 1 3 2
26 4 51 7 39 3 48 1 52 -15 2 -10 0 -26 -5 -35 -6 -10 -5 -16 2 -16 5 0 10 6
10 14 0 7 7 20 17 27 15 13 16 11 10 -23 -4 -30 -3 -36 9 -31 10 4 17 -2 21
-16 4 -17 8 -19 20 -10 11 10 15 8 20 -9 5 -21 23 -31 23 -13 0 5 6 11 14 14
11 5 13 -1 9 -28 -4 -28 -2 -33 13 -32 11 1 20 -7 24 -23 4 -15 13 -23 21 -21
8 2 22 6 32 8 9 3 17 0 17 -6 0 -7 -4 -9 -10 -6 -5 3 -10 -1 -10 -9 0 -8 4
-17 9 -20 5 -3 26 -42 47 -86 20 -44 40 -80 43 -80 3 0 14 14 23 30 9 17 22
30 28 30 6 0 8 -5 4 -12 -5 -7 -3 -8 6 -3 8 5 17 2 24 -7 13 -17 46 -32 65
-29 7 1 10 -2 6 -8 -3 -6 -2 -11 4 -11 5 0 12 6 15 13 3 6 5 3 5 -8 -2 -38 1
-39 31 -10 17 16 30 25 30 22 0 -12 -33 -60 -53 -79 -10 -9 -16 -22 -12 -27 3
-6 0 -8 -8 -5 -9 3 -21 -4 -30 -16 l-15 -22 -22 22 c-26 26 -20 36 11 20 19
-11 24 -10 35 5 8 10 11 22 7 28 -4 6 -11 3 -19 -7 -11 -16 -15 -16 -50 -1
-20 8 -39 13 -42 10 -3 -3 10 -21 28 -40 18 -19 31 -37 28 -41 -4 -3 -29 -18
-56 -32 -57 -31 -107 -70 -100 -77 3 -3 63 6 134 19 204 39 301 50 308 33 3
-9 7 -9 13 -1 11 15 135 12 141 -4 2 -7 11 -12 20 -12 15 0 15 2 2 11 -12 9
-12 10 3 5 10 -3 21 -6 23 -6 3 0 3 -4 0 -9 -3 -4 12 -28 34 -51 46 -49 49
-61 18 -52 -21 5 -20 3 7 -22 26 -24 27 -26 5 -14 -27 17 -102 29 -94 16 3 -4
-3 -8 -13 -8 -13 0 -9 -7 16 -27 37 -29 75 -39 67 -17 -15 40 71 2 111 -49 15
-19 26 -24 46 -20 15 3 30 9 33 14 3 5 2 8 -3 7 -4 -1 -26 5 -49 14 -44 18
-49 26 -130 226 -39 96 -39 93 -19 86 8 -4 15 -10 15 -16 0 -12 70 -122 81
-126 5 -2 9 -8 9 -13 0 -9 20 -36 50 -68 9 -9 22 -31 29 -49 8 -18 20 -36 29
-41 16 -9 103 8 137 26 11 7 79 30 150 53 72 23 142 46 157 52 l27 10 1 649
c1 729 9 660 -75 638 -130 -33 -183 -40 -277 -34 -171 10 -317 68 -482 188
-73 54 -187 180 -221 244 -11 21 -23 40 -26 43 -3 3 -12 23 -20 45 l-13 40 -7
-40 c-4 -22 -5 -43 -3 -46 2 -4 -3 -12 -11 -19 -8 -7 -15 -17 -15 -23 0 -21
-102 -104 -143 -117 l-42 -14 30 -7 c21 -5 14 -6 -20 -3 -27 3 -71 7 -97 8
-58 4 -102 35 -147 102 -36 55 -39 52 -11 -9 44 -95 90 -212 90 -229 0 -10
-11 -25 -25 -34 -14 -9 -31 -28 -38 -42 -15 -31 -38 -41 -30 -14 3 14 -1 22
-14 26 -27 9 -155 10 -175 2 -12 -6 -32 -47 -29 -63 1 -7 -27 -52 -47 -73 -12
-14 -46 -52 -75 -84 -51 -58 -113 -96 -152 -95 -16 1 -15 2 5 8 21 6 18 9 -25
15 -27 4 -58 12 -69 18 -14 7 -17 7 -11 -2 4 -7 21 -18 39 -26 19 -8 24 -13
13 -14 -48 -1 -101 50 -147 139 -40 79 -51 124 -55 216 -2 50 -2 81 2 70 3
-11 16 -31 29 -44 l24 -24 1 54 c0 30 3 48 6 42 7 -19 33 -15 33 5 0 22 37
-37 46 -74 8 -31 30 -41 56 -25 16 10 24 9 44 -4 13 -8 24 -19 24 -24 0 -15
32 -22 46 -10 10 8 14 8 14 0 0 -6 7 -11 15 -11 9 0 20 -11 25 -25 5 -14 17
-25 27 -25 11 0 14 -3 7 -8 -18 -11 2 -53 21 -46 11 5 14 2 9 -12 -14 -45 56
53 72 100 26 75 30 224 9 326 -22 112 -80 235 -131 279 -21 19 -31 32 -22 28
15 -5 221 -47 233 -47 2 0 16 -12 31 -27 l26 -28 -6 26 c-15 67 -19 169 -6
184 20 25 28 18 35 -32 5 -41 34 -113 35 -90 0 18 -31 153 -40 169 -8 14 -4
17 18 20 37 4 167 -33 192 -54 11 -10 28 -18 38 -18 20 -1 52 -27 68 -55 6
-11 20 -24 31 -29 11 -5 29 -22 39 -37 10 -15 26 -30 34 -32 9 -2 24 -19 33
-38 9 -19 27 -44 41 -57 l24 -22 6 24 c3 14 -1 55 -10 93 -8 37 -18 101 -21
142 -5 67 -3 73 12 67 9 -3 19 -6 21 -6 2 0 4 -7 4 -16 0 -8 -4 -13 -10 -9 -5
3 -5 -6 1 -24 8 -22 7 -36 -2 -53 -11 -21 -11 -22 4 -10 14 12 17 9 26 -20 9
-29 9 -27 4 17 -12 96 -9 258 5 262 6 3 12 14 13 26 0 12 4 31 9 42 6 15 8 10
8 -20 -1 -93 1 -105 21 -105 10 0 21 9 24 20 3 11 11 20 17 20 7 0 10 -7 6
-16 -3 -9 -6 -23 -6 -31 0 -11 -7 -14 -23 -10 -31 8 -43 -2 -49 -41 -4 -25 -1
-32 9 -27 8 3 17 5 19 5 7 0 4 38 -3 43 -5 2 -2 2 5 0 8 -1 22 -3 33 -3 12 0
19 -7 19 -20 0 -22 -15 -27 -24 -7 -3 6 -4 1 -3 -13 2 -20 7 -25 27 -23 24 3
24 2 -9 -26 -27 -22 -31 -30 -20 -37 29 -18 54 -14 64 8 14 31 30 20 30 -19 0
-28 3 -32 19 -27 15 5 18 2 13 -15 -5 -20 -3 -21 30 -15 35 7 36 6 29 -22 -4
-19 -3 -24 3 -15 7 11 10 10 15 -7 4 -11 14 -26 23 -34 15 -12 15 -11 5 9 -17
31 -15 39 6 20 10 -10 22 -14 25 -10 13 12 7 -8 -9 -32 -10 -16 -12 -25 -5
-25 7 0 9 -10 6 -27 -6 -26 -5 -26 11 5 19 37 29 37 15 0 -5 -15 -6 -30 0 -39
7 -12 9 -12 10 1 0 9 4 7 11 -7 6 -13 14 -23 18 -23 5 0 11 -12 15 -27 6 -27
48 -73 66 -73 5 0 9 -7 9 -15 0 -8 9 -19 20 -25 11 -6 18 -15 15 -20 -8 -14
15 -24 28 -11 8 8 15 4 28 -15 9 -14 20 -25 25 -25 11 1 69 -45 99 -77 19 -20
25 -22 42 -12 16 11 23 10 40 -5 12 -10 19 -24 16 -31 -4 -11 2 -12 25 -8 23
5 36 1 53 -15 31 -29 76 -26 130 7 71 45 75 47 49 18 -33 -37 -137 -85 -211
-98 -58 -10 -68 -29 -11 -21 l27 3 -25 -11 c-14 -6 -58 -9 -103 -7 -49 3 -74
1 -68 -5 5 -5 52 -7 108 -5 75 3 109 10 145 27 27 13 46 26 43 31 -2 4 15 13
38 21 23 8 56 27 74 42 l33 29 0 494 c0 311 -4 494 -10 494 -5 0 -24 13 -42
29 l-34 29 -148 1 c-99 1 -145 -2 -141 -9 3 -5 11 -10 16 -10 5 0 23 -14 39
-30 19 -20 24 -30 15 -30 -8 0 -15 4 -15 9 0 5 -13 14 -29 21 -16 6 -37 20
-47 31 -16 18 -64 19 -1850 19 l-1834 0 0 -1131z m2967 1009 c-3 -8 -6 -5 -6
6 -1 11 2 17 5 13 3 -3 4 -12 1 -19z m125 -60 c-7 -7 -12 -8 -12 -2 0 6 3 14
7 17 3 4 9 5 12 2 2 -3 -1 -11 -7 -17z m-12 -28 c0 -5 -4 -10 -9 -10 -6 0 -13
5 -16 10 -3 6 1 10 9 10 9 0 16 -4 16 -10z m-145 -100 c-3 -41 -15 -51 -15
-13 0 25 6 43 16 43 1 0 1 -14 -1 -30z m285 -145 c0 -8 -4 -15 -10 -15 -5 0
-10 7 -10 15 0 8 5 15 10 15 6 0 10 -7 10 -15z m-2510 -335 c0 -5 -2 -10 -4
-10 -3 0 -8 5 -11 10 -3 6 -1 10 4 10 6 0 11 -4 11 -10z m457 -40 c101 -11
187 -20 193 -20 5 0 7 -7 4 -15 -5 -11 1 -15 21 -15 23 0 26 2 15 15 -11 13
-10 14 5 9 9 -4 29 -8 44 -9 57 -4 57 -4 41 -16 -12 -9 -11 -10 8 -6 12 3 22
1 22 -4 0 -5 3 -9 8 -8 22 3 54 -17 73 -47 11 -19 32 -37 46 -40 20 -5 23 -11
19 -30 -3 -12 -2 -26 4 -29 5 -3 10 -18 11 -33 l1 -27 8 25 c7 22 8 20 9 -14
1 -24 7 -44 18 -51 20 -15 11 -45 -15 -45 -15 0 -18 -6 -15 -27 4 -22 2 -25
-6 -13 -9 13 -11 12 -11 -5 0 -23 -18 -45 -34 -45 -6 0 -5 4 2 9 7 4 13 27 14
51 0 33 5 44 19 47 11 3 19 9 19 14 0 19 -22 7 -55 -28 -27 -29 -31 -39 -19
-41 11 -3 12 -7 4 -17 -8 -10 -16 -10 -35 -1 -27 12 -33 31 -12 39 7 3 5 6 -5
6 -12 1 -18 -7 -19 -21 -1 -17 -2 -19 -6 -5 -6 22 -25 23 -21 0 3 -18 -31 -22
-65 -8 -15 6 -16 10 -5 16 11 7 11 11 -1 18 -17 11 -61 -14 -61 -35 0 -17 -17
-27 -32 -18 -18 12 -48 12 -55 1 -3 -5 -9 -4 -13 3 -5 8 -17 4 -43 -13 -25
-17 -33 -27 -25 -35 7 -7 3 -14 -12 -22 -20 -11 -21 -10 -15 12 4 12 16 31 26
41 11 10 19 25 19 34 0 13 -8 15 -45 11 -48 -6 -55 -2 -28 17 10 7 12 14 6 18
-6 4 -22 -2 -36 -13 -18 -15 -26 -17 -29 -8 -3 8 -9 4 -17 -10 -6 -12 -20 -22
-31 -22 -10 0 -22 -5 -26 -12 -5 -7 -2 -9 7 -6 8 3 23 0 32 -7 15 -11 16 -13
2 -19 -8 -3 -15 -12 -15 -20 0 -8 -6 -16 -12 -19 -18 -6 -5 -18 21 -20 16 -1
20 -6 15 -20 -3 -11 -7 -26 -8 -34 -1 -8 -7 -18 -12 -21 -5 -4 -10 -20 -12
-37 -2 -16 -12 -36 -23 -44 -10 -7 -19 -20 -19 -29 0 -8 -11 -38 -24 -66 -13
-28 -28 -64 -35 -79 -8 -20 -16 -27 -27 -23 -12 4 -14 1 -9 -14 9 -28 -18 -26
-45 3 -30 30 -67 105 -75 150 -6 28 -3 44 11 65 11 15 20 38 21 52 6 109 18
137 50 117 6 -4 19 -4 29 0 18 7 18 -4 -2 -51 -6 -16 -4 -18 9 -13 19 7 23
-13 7 -29 -7 -7 -1 -9 19 -8 28 2 47 -16 42 -39 -1 -5 3 -5 9 -2 6 4 9 13 6
20 -3 8 0 15 7 18 8 2 13 41 15 118 4 125 -22 264 -54 300 -15 17 -15 19 -1
19 9 0 20 -8 26 -17 5 -10 13 -15 17 -11 10 11 -23 127 -50 174 l-23 40 26 -3
c14 -2 108 -12 208 -23z m-432 10 c3 -5 1 -10 -4 -10 -6 0 -11 5 -11 10 0 6 2
10 4 10 3 0 8 -4 11 -10z m2155 -61 c-7 -11 -14 -18 -17 -15 -3 3 0 12 7 21
18 21 23 19 10 -6z m-10 -59 c0 -5 -13 -10 -29 -10 -17 0 -33 5 -36 10 -4 6 8
10 29 10 20 0 36 -4 36 -10z m-2182 -13 c24 -2 31 -27 7 -27 -8 0 -15 -4 -15
-10 0 -5 5 -10 10 -10 6 0 10 -8 8 -17 -2 -10 2 -17 8 -16 6 1 17 -9 24 -22 7
-14 17 -25 21 -25 13 0 -2 -134 -17 -151 -8 -8 -14 -24 -14 -34 0 -14 -3 -15
-15 -5 -12 10 -15 10 -15 -3 0 -9 5 -19 10 -22 6 -3 10 -12 9 -18 0 -9 -2 -8
-6 1 -2 6 -9 10 -14 6 -7 -4 -13 14 -11 37 1 3 -3 31 -7 62 -5 38 -4 58 3 61
7 2 3 18 -10 42 -11 22 -20 52 -19 68 1 18 -8 39 -22 54 -32 35 -29 46 10 38
17 -4 42 -8 55 -9z m-67 -59 c11 -21 11 -22 -4 -9 -10 7 -17 17 -17 22 0 15 9
10 21 -13z m1099 -58 c0 -5 -5 -10 -11 -10 -5 0 -7 5 -4 10 3 6 8 10 11 10 2
0 4 -4 4 -10z m-1115 -10 c3 -5 1 -10 -4 -10 -6 0 -11 5 -11 10 0 6 2 10 4 10
3 0 8 -4 11 -10z m2327 -72 c64 -24 178 -92 178 -106 0 -4 9 -13 21 -20 15
-10 19 -10 14 -1 -5 7 -3 10 6 7 8 -3 13 -11 11 -17 -1 -6 8 -11 20 -11 25 0
14 -15 -17 -23 -15 -4 -14 -5 7 -6 19 -1 26 -5 22 -15 -7 -19 16 -32 27 -15 7
11 11 10 23 -6 18 -24 10 -41 -11 -23 -14 11 -15 8 -8 -30 4 -29 3 -42 -4 -42
-7 0 -11 -10 -10 -22 5 -52 -1 -68 -26 -74 -38 -9 -51 -30 -35 -59 8 -14 11
-42 8 -70 -5 -38 -3 -45 11 -43 17 3 17 10 24 -182 2 -58 2 -70 0 -27 -2 45
-8 77 -14 77 -6 0 -8 7 -5 16 3 8 3 34 -1 57 l-6 42 -9 -30 c-4 -16 -5 -53 -3
-81 5 -51 5 -51 -27 -59 -18 -4 -27 -9 -20 -12 16 -6 16 -34 0 -30 -8 1 -11
-9 -9 -30 1 -19 -2 -33 -9 -33 -6 0 -15 -10 -21 -22 -9 -22 -9 -22 -4 2 2 14
5 31 5 38 0 7 5 10 12 6 7 -4 8 -3 4 4 -4 6 1 48 10 94 26 129 10 304 -39 428
-46 118 -154 252 -236 295 -25 13 -38 24 -29 25 9 0 46 -15 82 -34 47 -25 63
-30 57 -18 -18 34 -91 63 -173 69 -55 4 -78 3 -78 -6 0 -6 -13 -11 -29 -11
-16 0 -36 -6 -43 -12 -7 -7 -32 -24 -56 -37 -43 -23 -43 -23 -30 -2 7 12 40
35 73 51 57 29 65 30 165 26 79 -3 121 -10 172 -28z m-179 5 c-7 -2 -21 -2
-30 0 -10 3 -4 5 12 5 17 0 24 -2 18 -5z m1147 -3 c-20 -13 -33 -13 -25 0 3 6
14 10 23 10 15 0 15 -2 2 -10z m-2410 -110 c0 -5 -4 -10 -10 -10 -5 0 -10 5
-10 10 0 6 5 10 10 10 6 0 10 -4 10 -10z m200 0 c0 -5 -2 -10 -4 -10 -3 0 -8
5 -11 10 -3 6 -1 10 4 10 6 0 11 -4 11 -10z m-324 -47 c-10 -10 -19 5 -10 18
6 11 8 11 12 0 2 -7 1 -15 -2 -18z m201 -5 c-3 -8 -6 -5 -6 6 -1 11 2 17 5 13
3 -3 4 -12 1 -19z m-150 -40 c-3 -8 -6 -5 -6 6 -1 11 2 17 5 13 3 -3 4 -12 1
-19z m-442 -37 c-3 -6 -11 -11 -17 -11 -6 0 -6 6 2 15 14 17 26 13 15 -4z
m2343 -72 c-3 -8 -7 -3 -11 10 -4 17 -3 21 5 13 5 -5 8 -16 6 -23z m-68 -33
c0 -3 -4 -8 -10 -11 -5 -3 -10 -1 -10 4 0 6 5 11 10 11 6 0 10 -2 10 -4z
m-2640 -37 c0 -11 -4 -17 -10 -14 -5 3 -10 15 -10 26 0 11 5 17 10 14 6 -3 10
-15 10 -26z m48 -37 c13 11 14 9 8 -17 -11 -45 -23 -51 -45 -24 -11 13 -20 27
-21 31 0 10 34 15 38 5 2 -4 11 -2 20 5z m2685 -27 c-3 -9 -8 -14 -10 -11 -3
3 -2 9 2 15 9 16 15 13 8 -4z m-66 -107 c-3 -8 -6 -5 -6 6 -1 11 2 17 5 13 3
-3 4 -12 1 -19z m-887 -45 c-11 -17 -11 -17 -6 0 3 10 6 24 7 30 0 9 2 9 5 0
3 -7 0 -20 -6 -30z m-143 -5 c-3 -8 -6 -5 -6 6 -1 11 2 17 5 13 3 -3 4 -12 1
-19z m1050 -20 c-3 -8 -6 -5 -6 6 -1 11 2 17 5 13 3 -3 4 -12 1 -19z m28 -80
c0 -57 4 -116 9 -133 l9 -30 7 25 7 25 8 -30 c4 -16 13 -44 21 -62 8 -17 14
-39 14 -50 0 -15 2 -15 10 -3 5 8 10 12 12 10 26 -40 50 -102 46 -117 -4 -16
-1 -19 18 -17 13 1 22 -2 21 -7 -3 -14 113 -127 167 -162 27 -17 75 -37 105
-43 56 -12 56 -12 16 -14 -58 -3 -63 -2 -145 36 -58 27 -90 51 -144 107 -39
41 -58 57 -45 37 43 -64 134 -146 193 -174 76 -36 144 -43 225 -22 35 9 66 14
68 12 3 -3 -15 -10 -39 -16 -23 -6 -57 -16 -74 -21 -77 -23 -195 4 -267 62
-21 17 -41 28 -45 24 -9 -9 32 -40 103 -77 48 -25 76 -32 140 -36 72 -5 76 -7
40 -13 -50 -9 -147 12 -217 47 -53 27 -168 135 -168 159 0 7 -4 15 -9 17 -4 2
-18 21 -29 43 l-21 40 5 -35 c4 -32 2 -30 -22 20 -35 74 -56 132 -44 125 13
-8 12 10 -5 130 -8 55 -14 114 -14 130 l1 30 8 -30 c7 -29 12 -23 15 20 1 20
16 95 19 95 0 0 1 -46 1 -102z m-38 30 c-3 -8 -6 -5 -6 6 -1 11 2 17 5 13 3
-3 4 -12 1 -19z m163 -138 c0 -5 6 -10 13 -10 8 0 13 -14 14 -37 1 -23 8 -42
19 -50 21 -16 34 -17 34 -3 0 6 -7 10 -15 10 -8 0 -15 5 -15 11 0 5 5 7 10 4
6 -3 10 -2 10 4 0 6 6 8 14 5 8 -3 12 -12 9 -20 -3 -9 0 -14 8 -12 8 2 14 -6
15 -17 3 -49 5 -56 27 -64 13 -5 32 -25 41 -45 20 -43 39 -48 30 -8 l-5 27 19
-22 c11 -13 24 -23 29 -23 5 0 19 -18 32 -40 21 -38 41 -52 41 -30 0 6 7 10
15 10 9 0 12 6 9 15 -4 8 -1 15 5 15 6 0 11 -6 11 -14 0 -16 54 -59 63 -50 3
3 8 1 12 -5 3 -6 1 -11 -5 -11 -6 0 -8 -5 -5 -11 4 -6 14 -8 22 -5 8 3 11 2 8
-4 -3 -5 11 -12 31 -16 30 -6 34 -8 20 -16 -10 -6 -25 -8 -35 -5 -9 2 -22 -2
-29 -10 -16 -16 -58 -17 -66 0 -4 8 -8 9 -11 1 -13 -26 -141 32 -216 98 -34
30 -112 133 -174 228 -26 41 -53 78 -58 81 -5 4 -6 12 -3 18 9 14 76 15 76 1z
m-325 -19 c3 -5 1 -12 -5 -16 -5 -3 -10 1 -10 9 0 18 6 21 15 7z m-1981 -26
c-4 -8 -8 -15 -10 -15 -2 0 -4 7 -4 15 0 8 4 15 10 15 5 0 7 -7 4 -15z m2001
-60 c-21 -25 -41 -42 -46 -40 -4 3 -1 14 9 25 9 11 28 32 42 48 40 46 35 17
-5 -33z m365 55 c0 -5 -4 -10 -10 -10 -5 0 -10 5 -10 10 0 6 5 10 10 10 6 0
10 -4 10 -10z m-303 -42 c-3 -8 -6 -5 -6 6 -1 11 2 17 5 13 3 -3 4 -12 1 -19z
m-2080 -20 c-3 -8 -6 -5 -6 6 -1 11 2 17 5 13 3 -3 4 -12 1 -19z m1044 -21
c-8 -8 -11 -7 -11 4 0 9 3 19 7 23 4 4 9 2 11 -4 3 -7 -1 -17 -7 -23z m613 3
c-5 11 -4 12 5 4 10 -9 9 -18 -3 -43 -9 -17 -18 -31 -21 -31 -8 0 -24 72 -18
86 4 11 9 9 25 -9 11 -12 16 -15 12 -7z m433 -12 c-3 -7 -5 -2 -5 12 0 14 2
19 5 13 2 -7 2 -19 0 -25z m-2922 -8 c-11 -5 -27 -9 -35 -9 -13 -1 -13 0 0 9
8 5 24 9 35 9 l20 0 -20 -9z m398 3 c-7 -2 -21 -2 -30 0 -10 3 -4 5 12 5 17 0
24 -2 18 -5z m1125 -54 c-7 -5 -22 -8 -33 -7 -18 1 -18 1 2 5 19 4 43 34 25
32 -21 -3 -24 3 -6 15 17 13 19 12 22 -11 2 -14 -2 -30 -10 -34z m-328 44 c0
-3 -7 -11 -15 -19 -13 -14 -15 -13 -15 4 0 10 7 19 15 19 8 0 15 -2 15 -4z
m1365 -3 c3 -6 -1 -7 -9 -4 -18 7 -21 14 -7 14 6 0 13 -4 16 -10z m186 -13
c-10 -9 -11 -8 -5 6 3 10 9 15 12 12 3 -3 0 -11 -7 -18z m64 3 c-3 -5 -10 -10
-16 -10 -5 0 -9 5 -9 10 0 6 7 10 16 10 8 0 12 -4 9 -10z m-1638 -52 c-3 -8
-6 -5 -6 6 -1 11 2 17 5 13 3 -3 4 -12 1 -19z m654 -5 c-12 -20 -14 -14 -5 12
4 9 9 14 11 11 3 -2 0 -13 -6 -23z m-431 1 c0 -3 -6 -12 -14 -19 -17 -18 -29
-8 -13 11 12 14 27 18 27 8z m-150 -43 c0 -5 -7 -12 -16 -15 -24 -9 -28 -7
-14 9 14 17 30 20 30 6z m110 -1 c0 -5 -2 -10 -4 -10 -3 0 -8 5 -11 10 -3 6
-1 10 4 10 6 0 11 -4 11 -10z m1646 -57 c-10 -10 -36 -12 -36 -3 0 5 3 15 6
24 5 14 8 14 21 0 9 -8 12 -18 9 -21z m721 -69 c-3 -3 -12 -4 -19 -1 -8 3 -5
6 6 6 11 1 17 -2 13 -5z m24 -53 c-27 -21 -89 -58 -81 -48 14 15 86 66 95 66
6 0 -1 -8 -14 -18z m-136 -101 c-3 -5 -12 -10 -18 -10 -7 0 -6 4 3 10 19 12
23 12 15 0z"/>
<path d="M1010 3039 c0 -5 5 -7 10 -4 6 3 10 8 10 11 0 2 -4 4 -10 4 -5 0 -10
-5 -10 -11z"/>
<path d="M1650 2960 c0 -19 3 -21 12 -12 9 9 9 15 0 24 -9 9 -12 7 -12 -12z"/>
<path d="M1176 2934 c-22 -21 -20 -27 4 -14 11 6 20 15 20 20 0 14 -6 12 -24
-6z"/>
<path d="M1347 2935 c-4 -8 -2 -17 3 -20 6 -4 10 3 10 14 0 25 -6 27 -13 6z"/>
<path d="M1030 2920 c0 -5 5 -10 11 -10 5 0 7 5 4 10 -3 6 -8 10 -11 10 -2 0
-4 -4 -4 -10z"/>
<path d="M1380 2911 c0 -5 7 -14 15 -21 13 -10 15 -9 15 9 0 12 -6 21 -15 21
-8 0 -15 -4 -15 -9z"/>
<path d="M1356 2883 c-6 -14 -5 -15 5 -6 7 7 10 15 7 18 -3 3 -9 -2 -12 -12z"/>
<path d="M1264 2879 c-3 -6 -1 -16 5 -22 8 -8 11 -5 11 11 0 24 -5 28 -16 11z"/>
<path d="M881 2424 c0 -11 3 -14 6 -6 3 7 2 16 -1 19 -3 4 -6 -2 -5 -13z"/>
<path d="M3160 2733 c0 -15 19 -37 26 -31 3 4 -1 14 -10 23 -9 9 -16 13 -16 8z"/>
<path d="M3101 2628 c16 -31 16 -31 22 -8 3 11 1 18 -4 14 -5 -3 -9 0 -9 5 0
6 -5 11 -10 11 -7 0 -7 -8 1 -22z"/>
<path d="M3197 2593 c-4 -3 -7 -18 -7 -31 0 -32 15 -19 15 14 1 27 1 27 -8 17z"/>
<path d="M3134 2570 c0 -11 4 -20 8 -20 4 0 5 -7 2 -15 -5 -11 -2 -13 10 -9
18 7 18 9 10 42 -8 27 -30 29 -30 2z"/>
<path d="M3130 2200 c0 -5 5 -10 10 -10 6 0 10 5 10 10 0 6 -4 10 -10 10 -5 0
-10 -4 -10 -10z"/>
<path d="M3311 2124 c0 -11 3 -14 6 -6 3 7 2 16 -1 19 -3 4 -6 -2 -5 -13z"/>
<path d="M3342 1899 c6 -16 12 -28 14 -26 5 5 -13 57 -20 57 -3 0 0 -14 6 -31z"/>
<path d="M3407 1913 c-4 -3 -7 -13 -7 -22 1 -13 3 -13 11 2 11 19 8 33 -4 20z"/>
<path d="M3420 1884 c0 -5 7 -19 15 -30 8 -10 15 -14 15 -8 0 5 -7 19 -15 30
-8 10 -15 14 -15 8z"/>
<path d="M3470 1734 c0 -13 48 -59 55 -52 3 2 -9 17 -25 33 -17 16 -30 24 -30
19z"/>
<path d="M3548 2003 c-10 -2 -18 -8 -18 -12 0 -11 23 -31 35 -31 5 0 4 4 -4 9
-12 8 -12 12 -2 25 8 9 12 15 10 15 -2 -1 -12 -3 -21 -6z"/>
<path d="M3710 1826 c0 -8 5 -18 10 -21 6 -3 10 1 10 9 0 8 -4 18 -10 21 -5 3
-10 -1 -10 -9z"/>
<path d="M3768 1753 c7 -3 16 -2 19 1 4 3 -2 6 -13 5 -11 0 -14 -3 -6 -6z"/>
<path d="M3860 1726 c0 -2 7 -7 16 -10 8 -3 12 -2 9 4 -6 10 -25 14 -25 6z"/>
<path d="M3071 3588 c0 -10 -6 -18 -12 -18 -5 0 -7 -5 -3 -11 10 -16 27 5 21
27 -4 17 -5 17 -6 2z"/>
<path d="M2991 3488 c-1 -10 10 -43 24 -74 14 -31 25 -60 25 -64 0 -11 84
-153 107 -180 38 -46 100 -106 140 -138 51 -40 246 -142 270 -142 10 1 -4 10
-30 22 -35 15 -45 24 -35 30 9 6 5 7 -10 3 -35 -10 -137 62 -235 165 -112 117
-160 190 -235 350 -11 25 -21 37 -21 28z"/>
<path d="M3080 3400 c6 -11 13 -20 16 -20 2 0 0 9 -6 20 -6 11 -13 20 -16 20
-2 0 0 -9 6 -20z"/>
<path d="M2521 3350 c14 -31 19 -36 19 -24 0 6 -7 19 -16 30 -14 18 -14 18 -3
-6z"/>
<path d="M3106 3358 c52 -88 264 -340 264 -315 0 4 -34 44 -76 89 -41 45 -100
117 -130 160 -30 43 -57 78 -60 78 -3 0 -2 -6 2 -12z"/>
<path d="M3139 3263 c12 -18 24 -33 27 -33 9 0 -15 37 -33 51 -12 10 -11 5 6
-18z"/>
<path d="M3189 3193 c10 -16 45 -53 77 -83 54 -51 53 -50 -16 28 -74 83 -97
104 -61 55z"/>
<path d="M2630 3160 c-9 -6 -10 -10 -3 -10 6 0 15 5 18 10 8 12 4 12 -15 0z"/>
<path d="M3725 3040 c3 -5 8 -10 11 -10 2 0 4 5 4 10 0 6 -5 10 -11 10 -5 0
-7 -4 -4 -10z"/>
<path d="M3410 3011 c29 -24 169 -85 177 -77 3 3 -3 9 -13 12 -10 4 -53 23
-94 42 -97 46 -100 47 -70 23z"/>
<path d="M3995 2945 c-38 -24 -77 -45 -85 -45 -8 -1 -35 -10 -60 -20 l-45 -19
50 5 c28 3 70 11 95 19 25 7 64 18 88 25 39 10 42 13 42 45 0 19 -3 35 -7 34
-5 0 -39 -20 -78 -44z"/>
<path d="M3540 2920 c8 -5 22 -9 30 -9 10 0 8 3 -5 9 -27 12 -43 12 -25 0z"/>
<path d="M3638 2913 c7 -3 16 -2 19 1 4 3 -2 6 -13 5 -11 0 -14 -3 -6 -6z"/>
<path d="M2046 2735 c19 -29 52 -41 67 -26 8 8 5 11 -9 11 -12 0 -29 9 -39 20
-25 28 -39 25 -19 -5z"/>
<path d="M1964 2682 c10 -17 74 -26 99 -14 20 9 17 11 -18 11 -22 1 -51 4 -64
8 -17 4 -22 3 -17 -5z"/>
<path d="M2410 2280 c0 -5 5 -10 10 -10 6 0 10 5 10 10 0 6 -4 10 -10 10 -5 0
-10 -4 -10 -10z"/>
<path d="M2391 2264 c0 -11 3 -14 6 -6 3 7 2 16 -1 19 -3 4 -6 -2 -5 -13z"/>
<path d="M2283 2190 c-12 -31 -6 -39 15 -18 13 13 16 48 4 48 -4 0 -13 -13
-19 -30z"/>
<path d="M1481 2054 c0 -11 3 -14 6 -6 3 7 2 16 -1 19 -3 4 -6 -2 -5 -13z"/>
<path d="M2030 2063 c0 -4 5 -15 10 -23 8 -13 10 -13 10 2 0 9 -4 20 -10 23
-5 3 -10 3 -10 -2z"/>
<path d="M1641 2044 c0 -11 3 -14 6 -6 3 7 2 16 -1 19 -3 4 -6 -2 -5 -13z"/>
<path d="M1971 2014 c0 -11 3 -14 6 -6 3 7 2 16 -1 19 -3 4 -6 -2 -5 -13z"/>
<path d="M2075 2009 c-4 -6 -5 -12 -2 -15 2 -3 7 2 10 11 7 17 1 20 -8 4z"/>
<path d="M1931 1994 c0 -11 3 -14 6 -6 3 7 2 16 -1 19 -3 4 -6 -2 -5 -13z"/>
<path d="M1900 1985 c-7 -9 -8 -15 -2 -15 5 0 12 7 16 15 3 8 4 15 2 15 -2 0
-9 -7 -16 -15z"/>
<path d="M2030 1950 c0 -5 5 -10 10 -10 6 0 10 5 10 10 0 6 -4 10 -10 10 -5 0
-10 -4 -10 -10z"/>
<path d="M1177 1933 c-4 -3 -7 -11 -7 -17 0 -6 5 -5 12 2 6 6 9 14 7 17 -3 3
-9 2 -12 -2z"/>
<path d="M1890 1930 c0 -5 5 -10 11 -10 5 0 7 5 4 10 -3 6 -8 10 -11 10 -2 0
-4 -4 -4 -10z"/>
<path d="M1430 1815 c0 -8 2 -15 4 -15 2 0 6 7 10 15 3 8 1 15 -4 15 -6 0 -10
-7 -10 -15z"/>
<path d="M2945 1820 c3 -5 8 -10 11 -10 2 0 4 5 4 10 0 6 -5 10 -11 10 -5 0
-7 -4 -4 -10z"/>
<path d="M1189 1678 c-1 -5 -2 -11 -3 -15 -1 -5 -5 -13 -9 -19 -3 -7 3 -23 14
-38 11 -14 17 -30 14 -36 -8 -12 5 -13 24 -1 11 7 9 18 -12 62 -15 30 -27 51
-28 47z m21 -63 c0 -8 -2 -15 -4 -15 -2 0 -6 7 -10 15 -3 8 -1 15 4 15 6 0 10
-7 10 -15z"/>
<path d="M3300 1610 c0 -5 5 -10 11 -10 5 0 7 5 4 10 -3 6 -8 10 -11 10 -2 0
-4 -4 -4 -10z"/>
<path d="M3322 1574 c-10 -12 -10 -14 2 -14 17 0 30 16 19 23 -5 3 -14 -1 -21
-9z"/>
<path d="M1075 1560 c-3 -5 -1 -10 4 -10 6 0 11 5 11 10 0 6 -2 10 -4 10 -3 0
-8 -4 -11 -10z"/>
<path d="M1110 1560 c0 -5 7 -7 15 -4 8 4 15 8 15 10 0 2 -7 4 -15 4 -8 0 -15
-4 -15 -10z"/>
<path d="M3224 1514 c-4 -15 -3 -47 2 -73 8 -42 13 -48 67 -78 l57 -32 14 28
c20 38 28 111 12 105 -7 -3 -37 14 -68 36 -31 22 -61 40 -67 40 -6 0 -14 -12
-17 -26z m83 -30 c27 -20 49 -38 51 -39 4 -4 -18 -85 -23 -85 -2 0 -23 12 -47
26 -41 25 -43 28 -45 80 -2 30 2 54 7 54 5 0 31 -16 57 -36z"/>
<path d="M3080 1484 c-8 -19 -14 -49 -15 -65 0 -27 6 -33 62 -58 34 -15 72
-36 84 -47 22 -19 22 -19 15 0 -10 30 -104 182 -119 194 -11 9 -16 4 -27 -24z
m75 -75 c18 -33 23 -50 14 -47 -8 3 -31 11 -51 19 -41 14 -44 20 -27 68 14 39
24 32 64 -40z"/>
<path d="M709 1503 c-10 -2 -20 -14 -24 -26 -6 -21 -6 -21 -14 -2 -8 19 -8 19
-19 -2 -10 -18 -21 -22 -64 -22 -76 -1 -100 -5 -125 -19 -12 -6 -28 -12 -35
-12 -7 0 -24 -9 -38 -20 -30 -24 -41 -25 -34 -5 8 20 -15 19 -44 -1 -23 -16
-27 -11 -23 26 2 9 -5 5 -15 -8 -12 -17 -23 -23 -40 -19 -14 2 -27 1 -29 -3
-3 -5 -14 -6 -24 -3 -10 3 -22 0 -25 -6 -11 -18 -26 -13 -35 12 -9 22 -9 21
-21 -8 -8 -23 -13 -26 -20 -15 -5 8 -6 18 -4 22 3 4 -1 8 -9 8 -8 0 -18 -7
-21 -16 -3 -8 -11 -12 -17 -8 -6 3 -15 0 -20 -7 -14 -22 -12 -889 2 -889 8 0
7 -5 -2 -16 -16 -19 2 -34 44 -34 15 0 27 -5 27 -11 0 -8 -14 -10 -40 -6 -27
3 -40 1 -40 -7 0 -7 15 -10 42 -8 l43 3 -29 -15 c-15 -9 -35 -16 -42 -16 -11
0 -14 -34 -14 -185 l0 -185 1570 0 c996 0 1570 3 1570 10 0 5 -12 31 -28 57
-15 26 -33 62 -41 78 -7 17 -20 43 -28 58 -8 15 -20 38 -26 50 -7 13 -48 75
-91 140 -66 98 -101 136 -209 235 -72 64 -149 135 -171 157 -30 29 -55 43 -96
52 -111 25 -167 33 -245 33 -105 0 -156 -22 -185 -80 -11 -22 -31 -45 -43 -49
-14 -6 -36 -35 -57 -76 -31 -62 -36 -66 -64 -63 -23 2 -32 -1 -34 -15 -3 -17
1 -18 30 -12 21 4 28 3 20 -3 -8 -5 -13 -12 -13 -16 3 -17 0 -20 -9 -6 -5 8
-12 12 -15 8 -3 -3 1 -13 10 -21 17 -18 20 -37 5 -37 -5 0 -10 4 -10 8 0 11
-35 52 -43 52 -4 0 4 -20 17 -45 19 -36 21 -43 8 -36 -26 14 -85 8 -90 -9 -8
-24 -24 -29 -41 -12 -9 8 -16 19 -16 24 0 22 -21 8 -26 -18 -5 -24 -7 -26 -13
-12 -5 10 -17 18 -27 18 -11 0 -22 -8 -26 -18 -9 -24 -41 -54 -48 -43 -3 5 -3
16 1 24 3 8 -2 17 -10 20 -10 4 -16 1 -16 -8 0 -20 -6 -19 -41 6 -16 11 -29
29 -29 41 0 30 -25 16 -25 -15 -1 -34 -14 -46 -26 -24 -6 9 -14 15 -19 12 -10
-6 7 -44 24 -56 4 -4 -4 -6 -19 -6 -15 0 -31 -7 -36 -14 -8 -12 -11 -12 -18 1
-6 8 -13 11 -17 7 -8 -8 -34 11 -34 25 0 5 16 6 35 2 29 -5 35 -3 35 11 0 14
-9 16 -52 14 -29 -1 -59 -7 -65 -12 -10 -7 -13 -4 -13 10 0 16 6 19 30 18 17
-1 35 4 41 11 15 18 -6 27 -31 14 -12 -6 -36 -12 -53 -12 -18 0 -44 -9 -59
-19 -14 -11 -33 -19 -42 -19 -9 0 -16 -7 -16 -15 0 -21 -24 -19 -46 6 -11 12
-26 18 -37 15 -11 -2 -25 4 -35 15 -9 10 -25 19 -34 19 -15 0 -17 -5 -12 -27
9 -39 13 -43 37 -43 14 0 18 -3 11 -10 -16 -16 -61 4 -69 30 -6 19 -12 21 -46
15 -27 -5 -39 -3 -39 5 0 10 -3 10 -15 0 -13 -11 -15 -8 -15 19 0 35 -19 42
-27 10 -5 -16 -11 -19 -30 -14 -18 4 -24 2 -21 -7 3 -7 17 -14 31 -16 16 -2
27 -9 27 -19 0 -9 -6 -13 -15 -9 -8 3 -15 1 -15 -4 0 -6 -11 -5 -27 1 -20 7
-29 7 -31 -1 -2 -5 -11 -17 -19 -26 -14 -13 -18 -13 -41 2 -22 15 -26 15 -33
1 -6 -9 -17 -13 -29 -10 -14 4 -20 0 -20 -11 0 -9 -6 -16 -13 -16 -13 0 -47
108 -47 148 0 11 -7 33 -15 48 -8 16 -15 41 -15 57 0 15 -4 27 -9 27 -15 0
-20 51 -5 57 18 7 18 29 0 36 -18 7 -27 68 -12 86 9 11 7 13 -11 7 -13 -4 -24
-2 -30 6 -16 25 -29 105 -21 127 10 28 3 41 -23 41 -26 0 -20 24 7 29 10 2 28
9 38 17 19 13 19 14 1 20 -10 4 -26 2 -35 -4 -14 -9 -23 -7 -40 8 -13 11 -20
26 -16 35 3 8 2 15 -2 15 -4 0 -12 12 -19 26 -9 20 -9 26 3 31 20 7 18 33 -3
33 -29 0 -5 12 41 21 36 7 178 10 297 7 14 -1 41 6 59 15 18 10 41 17 51 17
10 0 44 7 76 15 32 9 83 15 113 13 59 -3 96 11 88 33 -3 8 -1 22 4 33 8 14 7
17 -2 11 -10 -6 -11 -1 -7 17 7 26 -26 89 -61 116 -23 18 -59 15 -66 -5 -11
-31 -36 -68 -36 -55 0 8 -7 11 -17 8 -10 -2 -37 -8 -61 -11 -37 -6 -41 -5 -36
10 4 9 10 12 13 7 4 -6 11 -4 19 4 11 12 10 15 -3 21 -12 4 -13 8 -5 13 15 9
1 18 -21 13z m176 -143 c-3 -5 -14 -10 -23 -9 -14 0 -13 2 3 9 27 11 27 11 20
0z m65 -21 c0 -5 5 -7 10 -4 6 3 10 -3 10 -13 0 -37 -79 -16 -80 21 0 4 14 7
30 7 17 0 30 -5 30 -11z m-820 -697 c0 -15 -2 -15 -10 -2 -13 20 -13 33 0 25
6 -3 10 -14 10 -23z m-1 -79 c0 -32 -2 -35 -10 -18 -7 15 -8 9 -5 -22 5 -50
-8 -58 -18 -12 -10 53 -8 72 9 65 9 -3 15 0 15 9 0 8 2 15 5 15 3 0 5 -17 4
-37z m-49 17 c0 -12 -28 -25 -36 -17 -9 9 6 27 22 27 8 0 14 -5 14 -10z m7
-92 c-3 -8 -6 -5 -6 6 -1 11 2 17 5 13 3 -3 4 -12 1 -19z m50 0 c-3 -8 -6 -5
-6 6 -1 11 2 17 5 13 3 -3 4 -12 1 -19z m1673 -18 c0 -5 -4 -10 -10 -10 -5 0
-10 5 -10 10 0 6 5 10 10 10 6 0 10 -4 10 -10z m-650 -38 c0 -13 -12 -22 -22
-16 -10 6 -1 24 13 24 5 0 9 -4 9 -8z m-43 -44 c-3 -7 -5 -2 -5 12 0 14 2 19
5 13 2 -7 2 -19 0 -25z m163 -24 c0 -8 -5 -12 -10 -9 -6 4 -8 11 -5 16 9 14
15 11 15 -7z m-430 -8 c0 -11 -19 -15 -25 -6 -3 5 1 10 9 10 9 0 16 -2 16 -4z
m-34 -32 c-3 -9 -6 -21 -6 -27 0 -8 -3 -8 -11 0 -13 13 -5 43 12 43 6 0 8 -7
5 -16z m154 12 c0 -3 -4 -8 -10 -11 -5 -3 -10 -1 -10 4 0 6 5 11 10 11 6 0 10
-2 10 -4z m370 -17 c0 -6 -4 -7 -10 -4 -5 3 -10 11 -10 16 0 6 5 7 10 4 6 -3
10 -11 10 -16z"/>
<path d="M615 1470 c3 -5 10 -10 16 -10 5 0 9 5 9 10 0 6 -7 10 -16 10 -8 0
-12 -4 -9 -10z"/>
<path d="M2907 1429 c-14 -28 -23 -57 -20 -65 3 -9 14 3 28 34 29 64 39 69 64
34 l20 -29 -34 -54 c-38 -57 -40 -65 -26 -74 5 -3 13 4 16 15 9 27 48 89 57
90 3 0 22 -32 41 -72 18 -39 37 -67 40 -61 14 22 -115 233 -142 233 -11 0 -28
-20 -44 -51z"/>
<path d="M4008 1463 c7 -3 16 -2 19 1 4 3 -2 6 -13 5 -11 0 -14 -3 -6 -6z"/>
<path d="M15 1440 c27 -12 43 -12 25 0 -8 5 -22 9 -30 9 -10 0 -8 -3 5 -9z"/>
<path d="M3419 1426 c14 -14 27 -26 29 -26 10 0 -26 44 -39 48 -8 3 -3 -7 10
-22z"/>
<path d="M3915 1439 c22 -4 49 -8 60 -8 l20 0 -20 9 c-11 5 -38 8 -60 8 l-40
0 40 -9z"/>
<path d="M4013 1423 c9 -2 23 -2 30 0 6 3 -1 5 -18 5 -16 0 -22 -2 -12 -5z"/>
<path d="M2342 1373 c2 -10 12 -18 23 -18 11 0 21 8 23 18 3 13 -3 17 -23 17
-20 0 -26 -4 -23 -17z"/>
<path d="M2407 1370 c4 -13 0 -25 -8 -30 -17 -11 -5 -24 16 -17 19 8 20 41 1
56 -12 10 -13 8 -9 -9z"/>
<path d="M3680 1387 c11 -12 90 -25 96 -16 3 5 -4 9 -14 9 -11 0 -35 3 -53 6
-19 4 -32 4 -29 1z"/>
<path d="M2455 1347 c-19 -29 -31 -87 -18 -87 6 0 18 18 28 40 18 39 19 40 38
23 25 -23 88 -116 117 -173 27 -55 26 -53 38 -46 20 12 -71 162 -148 244 -26
28 -36 28 -55 -1z"/>
<path d="M3816 1361 c5 -4 38 -16 74 -26 36 -9 93 -28 128 -41 58 -22 79 -20
50 4 -15 11 -220 72 -245 72 -10 0 -13 -3 -7 -9z"/>
<path d="M2257 1273 c-32 -32 -57 -63 -57 -70 0 -7 20 -44 45 -82 25 -38 45
-74 45 -79 0 -5 7 -15 15 -22 8 -7 15 -10 15 -7 0 13 -39 87 -68 129 -17 26
-32 50 -32 55 0 10 92 103 103 103 10 0 79 -97 127 -180 48 -83 66 -81 26 2
-30 62 -136 208 -152 208 -6 0 -36 -26 -67 -57z"/>
<path d="M1148 1283 c7 -3 16 -2 19 1 4 3 -2 6 -13 5 -11 0 -14 -3 -6 -6z"/>
<path d="M2079 1228 c0 -24 -4 -65 -7 -91 l-7 -49 -42 31 c-23 17 -57 39 -75
48 -18 10 -45 27 -60 37 -16 10 -34 16 -42 13 -12 -5 -3 -28 41 -104 31 -54
71 -134 89 -178 18 -44 37 -81 41 -82 18 -6 54 66 61 122 4 32 12 60 19 62 6
2 29 -12 51 -31 37 -34 72 -47 72 -27 0 5 -30 27 -66 50 -53 34 -64 45 -58 59
5 9 9 43 9 75 0 31 2 57 5 57 6 0 80 -131 108 -193 25 -53 50 -57 28 -4 -36
88 -135 246 -153 247 -8 0 -13 -15 -14 -42z m-89 -108 c82 -56 83 -58 69 -132
-6 -35 -15 -74 -19 -88 -8 -25 -8 -25 -22 9 -42 109 -97 216 -108 213 -7 -2
-10 3 -7 12 4 9 2 18 -3 21 -6 4 -10 11 -10 16 0 12 27 -2 100 -51z"/>
<path d="M1746 1188 c4 -7 28 -44 52 -82 50 -79 94 -171 111 -233 6 -22 20
-52 30 -65 17 -20 20 -21 26 -6 13 34 -180 398 -212 398 -9 0 -11 -5 -7 -12z"/>
<path d="M388 1167 c4 -17 2 -19 -17 -14 -22 5 -22 5 -5 -14 23 -26 38 -24 54
6 7 14 17 25 22 25 4 0 8 4 8 8 0 4 -15 8 -34 9 -29 1 -33 -2 -28 -20z"/>
<path d="M380 1090 c0 -5 5 -10 10 -10 6 0 10 5 10 10 0 6 -4 10 -10 10 -5 0
-10 -4 -10 -10z"/>
<path d="M408 1032 c-30 -6 -20 -19 12 -14 17 2 30 6 30 7 0 6 -26 11 -42 7z"/>
<path d="M510 1030 c0 -5 5 -10 10 -10 6 0 10 5 10 10 0 6 -4 10 -10 10 -5 0
-10 -4 -10 -10z"/>
<path d="M2395 993 c-16 -2 -48 -9 -70 -15 -22 -6 -45 -12 -52 -14 -36 -7
-114 -37 -119 -46 -8 -12 43 -9 244 13 79 8 115 16 119 26 5 11 9 11 23 -2 10
-9 38 -19 62 -22 124 -14 331 -126 435 -236 74 -77 93 -93 93 -76 0 24 -230
235 -289 265 -125 62 -148 73 -199 88 -55 16 -197 27 -247 19z"/>
<path d="M445 920 c-4 -6 3 -10 14 -10 25 0 27 6 6 13 -8 4 -17 2 -20 -3z"/>
<path d="M380 910 c0 -5 5 -10 10 -10 6 0 10 5 10 10 0 6 -4 10 -10 10 -5 0
-10 -4 -10 -10z"/>
<path d="M1275 750 c3 -5 11 -10 16 -10 6 0 7 5 4 10 -3 6 -11 10 -16 10 -6 0
-7 -4 -4 -10z"/>
<path d="M1004 659 c-9 -10 -23 -19 -30 -19 -19 0 -26 -17 -16 -37 9 -15 11
-14 21 5 6 11 23 22 38 24 16 2 29 10 31 19 5 25 -24 30 -44 8z"/>
<path d="M860 590 c-18 -43 -3 -54 38 -28 39 24 39 52 1 56 -21 2 -29 -3 -39
-28z"/>
<path d="M1400 569 c-7 -11 -9 -23 -7 -26 6 -6 47 28 47 39 0 17 -30 7 -40
-13z"/>
<path d="M1467 574 c-11 -11 3 -24 24 -24 12 0 19 5 17 13 -5 14 -31 21 -41
11z"/>
<path d="M920 520 c-8 -5 -11 -12 -8 -16 10 -9 38 3 38 16 0 12 -10 13 -30 0z"/>
<path d="M1076 505 c-4 -14 -11 -25 -16 -25 -6 0 -10 -4 -10 -10 0 -25 28 -7
34 22 7 38 1 49 -8 13z"/>
<path d="M3206 508 c10 -14 21 -24 23 -22 3 3 -6 15 -18 27 l-24 22 19 -27z"/>
<path d="M1140 510 c0 -5 7 -10 15 -10 8 0 15 5 15 10 0 6 -7 10 -15 10 -8 0
-15 -4 -15 -10z"/>
<path d="M1467 484 c-5 -26 2 -31 21 -12 16 16 15 25 -2 31 -9 4 -16 -3 -19
-19z"/>
<path d="M3270 418 c0 -8 37 -76 57 -104 35 -50 80 -163 119 -302 2 -6 15 -12
29 -12 35 0 32 24 -10 90 -19 30 -35 59 -35 64 0 26 -97 205 -126 234 -19 18
-34 31 -34 30z"/>
<path d="M4040 382 c0 -10 22 -32 32 -32 4 0 8 9 8 20 0 13 -7 20 -20 20 -11
0 -20 -4 -20 -8z"/>
<path d="M3991 284 c0 -11 3 -14 6 -6 3 7 2 16 -1 19 -3 4 -6 -2 -5 -13z"/>
<path d="M4024 245 c-13 -17 -20 -21 -26 -12 -6 9 -8 8 -8 -3 0 -27 14 -36 53
-36 36 0 37 1 37 38 0 30 -4 38 -19 38 -10 0 -27 -11 -37 -25z"/>
<path d="M3864 135 c-7 -27 -23 -32 -42 -13 -15 15 -37 -3 -50 -42 -12 -32 -7
-40 20 -40 23 0 23 -16 1 -29 -13 -7 26 -10 135 -11 l152 0 0 83 0 82 -20 -25
c-17 -21 -21 -23 -30 -10 -7 11 -10 6 -10 -22 0 -21 -5 -38 -11 -38 -6 0 -9
-7 -5 -15 8 -21 -3 -45 -20 -45 -9 0 -14 11 -14 28 0 32 -64 122 -86 122 -8 0
-16 -11 -20 -25z"/>
<path d="M3560 16 c0 -9 7 -16 16 -16 17 0 14 22 -4 28 -7 2 -12 -3 -12 -12z"/>
</g>
</svg>
